<?xml version="1.0" encoding="UTF-8"?>
<svg xmlns="http://www.w3.org/2000/svg" width="20" height="20" viewBox="0 0 20 20" fill="none">
  <g clip-path="url(#clip0_22_1015)">
    <path d="M7.12859 3.49805H16.4262C17.2986 3.49805 18.0072 4.20662 18.0072 5.07905V18.4192C18.0072 19.2916 17.2986 20.0002 16.4262 20.0002H7.12859C6.25618 20.0002 5.54761 19.2916 5.54761 18.4192V5.07905C5.55169 4.20662 6.26028 3.49805 7.12859 3.49805ZM6.65758 18.4151C6.65758 18.6772 6.87056 18.8902 7.1327 18.8902H16.4302C16.6923 18.8902 16.9053 18.6772 16.9053 18.4151V5.07905C16.9053 4.81691 16.6923 4.60392 16.4302 4.60392H7.1327C6.87056 4.60392 6.65758 4.81691 6.65758 5.07905V18.4151Z" fill="white"></path>
    <path d="M3.57343 0H12.871C13.7435 0 14.452 0.708581 14.452 1.581C14.452 1.88819 14.2062 2.13394 13.8991 2.13394C13.5918 2.13394 13.3461 1.88819 13.3461 1.581C13.3461 1.31886 13.1331 1.10588 12.871 1.10588H3.57343C3.31129 1.10588 3.09831 1.31886 3.09831 1.581V14.9211C3.09831 15.1833 3.31129 15.3963 3.57343 15.3963C3.88062 15.3963 4.12637 15.642 4.12637 15.9493C4.12637 16.2564 3.88062 16.5021 3.57343 16.5021C2.70102 16.5021 1.99243 15.7936 1.99243 14.9211V1.581C1.99243 0.708581 2.70102 0 3.57343 0Z" fill="white"></path>
  </g>
  <defs>
    <clipPath id="clip0_22_1015">
      <rect width="20" height="20" fill="white"></rect>
    </clipPath>
  </defs>
</svg>
