<?xml version="1.0" encoding="UTF-8"?>
<svg xmlns="http://www.w3.org/2000/svg" width="25" height="25" viewBox="0 0 25 25" fill="none">
  <path d="M2.04049 1.08583C2.07028 1.13304 2.11283 1.17167 2.13411 1.17167C2.15539 1.17167 2.13837 1.13304 2.09581 1.08583C2.05326 1.03863 2.0107 1 2.00219 1C1.99368 1 2.0107 1.03863 2.04049 1.08583Z" fill="#808080" fill-opacity="0.4"></path>
  <path d="M2.27046 1.3521C2.35982 1.46798 2.44919 1.5581 2.46621 1.5581C2.52153 1.5581 2.50877 1.54094 2.30025 1.34352L2.10449 1.15039L2.27046 1.3521ZM2.52579 1.63965C2.50877 1.6611 2.51728 1.68685 2.5343 1.69544C2.56409 1.70831 3.26625 2.55807 5.43656 5.22752C6.52597 6.56653 7.02812 7.18454 7.13876 7.32617C7.19408 7.39912 7.62814 7.9313 8.09625 8.51068C9.56014 10.3175 9.64951 10.4377 9.64951 10.6179C9.64951 10.7724 9.38141 10.987 9.07076 11.0857C8.70479 11.1973 8.60691 11.193 8.33881 11.06C8.04944 10.914 8.01114 10.8625 6.47916 8.46776C5.5089 6.94849 5.46209 6.87983 5.44507 6.90129C5.42379 6.92274 5.5855 7.22746 6.2451 8.40339C6.80683 9.40765 7.34302 10.3947 7.52601 10.7724C7.68772 11.0943 7.67495 11.163 7.41111 11.4891C7.07918 11.9011 6.97279 12.223 6.80257 13.3088C6.67491 14.1285 6.37702 14.7036 5.46209 15.871C4.66631 16.8881 4.53013 17.1971 4.53013 17.9868C4.53439 18.7507 4.6961 19.2314 5.26208 20.1412C5.42804 20.4116 5.59827 20.7249 5.64082 20.8365C5.69614 20.9996 5.72593 21.0339 5.79827 21.021C7.12174 20.7506 8.16859 20.2185 8.57287 19.6133C8.80266 19.2657 8.81969 18.6563 8.60265 18.3258C8.45797 18.1027 8.30051 17.9567 7.88347 17.6606C7.20685 17.1799 6.91747 16.7894 6.8579 16.2701C6.82385 15.9654 6.92598 15.6092 7.2494 14.8882C7.37707 14.6092 7.5175 14.2659 7.56431 14.1285C7.64517 13.8882 7.66644 13.7594 7.77709 12.8711C7.85794 12.2058 8.03667 12.0041 8.60691 11.9269C9.20694 11.841 9.64525 11.6608 9.93888 11.3733C10.2027 11.12 10.2963 10.9055 10.3176 10.5492L10.3346 10.2488L9.21545 8.99993C7.88773 7.51929 6.44086 5.91419 6.16425 5.61377C6.0536 5.4936 5.38123 4.75114 4.67056 3.96146C3.95989 3.17179 3.26625 2.40786 3.13433 2.26624C3.0024 2.12461 2.81516 1.91861 2.72154 1.80702C2.62366 1.69115 2.53855 1.61819 2.52579 1.63965ZM5.88764 17.755C6.07914 17.9482 6.0919 18.2185 5.92168 18.4202C5.77274 18.6005 5.51741 18.6091 5.41102 18.4417C5.34293 18.3387 5.34293 18.3258 5.41102 18.1799C5.47911 18.034 5.47911 18.0254 5.394 17.9353C5.22804 17.755 5.32166 17.6134 5.60252 17.6091C5.70891 17.6091 5.78125 17.6477 5.88764 17.755ZM9.9474 6.21461C11.1687 6.49357 11.9134 7.06437 13.1348 8.66089C14.0114 9.80678 14.3859 10.2102 14.8838 10.5449C15.5519 10.9956 16.3945 11.2016 17.9478 11.3003C19.0797 11.3733 19.4542 11.4548 19.8415 11.7123C20.084 11.8711 20.2287 12.017 20.3947 12.2659L20.5096 12.4376L20.4798 12.2445C20.3819 11.6222 19.9308 10.7123 19.4202 10.1201L19.2755 9.95269L19.2031 10.2059C19.0244 10.8625 18.752 11.2574 18.4797 11.2574C18.3648 11.2574 18.2116 11.163 18.1648 11.0557C18.0967 10.9012 18.1052 10.8239 18.2329 10.5449C18.3307 10.3261 18.3478 10.2359 18.3478 9.88403C18.3478 9.66086 18.3222 9.37331 18.2924 9.25314C18.2414 9.04285 18.2201 9.0171 17.9903 8.87547C17.3264 8.46776 16.5094 8.18022 15.6796 8.05576C15.1519 7.97851 14.0497 7.99138 13.5986 8.08151L13.3561 8.12872L12.8326 7.60084C11.8624 6.61803 11.0921 6.2189 10.0751 6.17169L9.67079 6.15024L9.9474 6.21461Z" fill="white"></path>
  <path d="M5.1255 6.42009C5.13827 6.47588 5.17231 6.52309 5.20635 6.52309C5.28721 6.52309 5.28295 6.47588 5.18508 6.39005C5.11273 6.32138 5.10848 6.32138 5.1255 6.42009ZM5.26168 6.65614C5.28721 6.70764 5.32976 6.75914 5.3553 6.7763C5.38934 6.79347 5.38934 6.7806 5.3553 6.71622C5.32976 6.66472 5.28721 6.61322 5.26168 6.59605C5.22763 6.57889 5.22763 6.59176 5.26168 6.65614ZM9.47888 7.08102C9.47888 8.16253 9.90869 9.23116 10.5981 9.86634C10.9555 10.1968 11.3258 10.3985 11.6194 10.4243C11.9854 10.4586 11.9939 10.42 11.7215 9.96076C11.4407 9.49296 11.3939 9.3685 11.2449 8.6947C11.0364 7.75052 10.8789 7.41148 10.5257 7.11535C10.3172 6.94368 9.78528 6.71193 9.59804 6.70764H9.47888V7.08102ZM18.6112 6.97372C18.5772 7.09818 18.5389 7.36427 18.5218 7.56598C18.4835 8.12819 18.4793 8.13678 18.3176 8.11103C18.241 8.09815 17.9644 8.01232 17.7005 7.91361C17.4367 7.81919 17.1984 7.73765 17.1686 7.73765C17.1388 7.73765 17.3431 7.85782 17.6197 8.00803C18.2069 8.32132 18.458 8.52303 18.5814 8.78053C18.7219 9.07666 18.7814 10.0037 18.6921 10.4843C18.675 10.5702 18.6793 10.5788 18.7133 10.523C18.7942 10.3856 18.8793 9.96505 18.9048 9.55304C18.9516 8.80628 18.9602 8.7977 19.441 9.16679C19.6325 9.31271 19.8325 9.46292 19.8879 9.50154C19.9432 9.54017 19.9772 9.57879 19.9645 9.59596C19.9517 9.60884 19.9815 9.63888 20.0283 9.66892C20.0879 9.69896 20.1177 9.69896 20.1177 9.66892C20.1177 9.64746 20.0879 9.626 20.0496 9.626C20.0155 9.626 19.9942 9.60884 20.0113 9.58738C20.024 9.56163 20.0113 9.53158 19.9815 9.51013C19.8496 9.42429 18.9219 8.37282 18.8453 8.21832C18.7304 7.98657 18.658 7.49302 18.6793 7.08531C18.6921 6.90076 18.6963 6.75055 18.6878 6.75055C18.6836 6.75055 18.6495 6.85356 18.6112 6.97372ZM14.7685 11.583C14.8025 12.2826 14.9515 12.6474 15.4068 13.1323C15.5643 13.2997 15.8451 13.54 16.0239 13.6602C16.4239 13.9306 17.3558 14.3941 18.0878 14.6859C19.9432 15.4284 20.739 15.9477 21.0751 16.6387C21.173 16.8318 21.2369 17.0378 21.2539 17.1923C21.2666 17.3253 21.2922 17.4369 21.3092 17.4369C21.3645 17.4369 21.6156 16.8232 21.6752 16.5357C21.7603 16.1194 21.7518 15.2095 21.6539 14.8361C21.3986 13.8405 20.7305 13.0765 19.7049 12.6044C19.1346 12.3427 18.6197 12.2139 17.2665 12.0079C15.9941 11.8105 15.4068 11.6259 14.9515 11.274L14.743 11.1152L14.7685 11.583ZM10.7002 12.1324C10.3938 12.2439 10.1342 12.5959 10.113 12.9092C10.0917 13.2568 10.113 13.3641 10.2406 13.4928C10.3598 13.6087 10.3853 13.6173 10.7257 13.6173C11.3641 13.6173 11.8875 13.3727 11.9726 13.0422C12.0364 12.7804 11.7939 12.3641 11.479 12.201C11.2577 12.0852 10.9045 12.0551 10.7002 12.1324ZM11.3811 12.2826C11.7471 12.51 11.462 12.9306 10.9768 12.8748C10.7215 12.8448 10.5257 12.656 10.5683 12.4843C10.6321 12.2268 11.1002 12.1109 11.3811 12.2826ZM16.2068 14.7675C16.5601 16.1322 15.7941 17.2266 14.2876 17.5185C12.3471 17.8918 12.1471 17.9476 11.5428 18.2953C11.2151 18.4841 11.2066 18.5013 11.4832 18.4026C11.9301 18.2395 12.5088 18.1536 13.6067 18.0764C14.9132 17.9863 15.4706 17.7931 16.0153 17.2481C16.4366 16.8189 16.5856 16.5013 16.6154 15.9391C16.6324 15.6215 16.6239 15.4627 16.5643 15.2696C16.4835 14.9864 16.3132 14.643 16.2026 14.54C16.1388 14.4799 16.1388 14.5014 16.2068 14.7675ZM17.1048 15.0722C17.0324 15.3082 17.0409 16.0249 17.1218 16.3382C17.2282 16.7631 17.4792 17.2309 18.0963 18.1622C19.0368 19.5871 19.258 20.0334 19.3517 20.6986C19.4155 21.1493 19.3517 21.4711 19.0708 22.175C19.0453 22.2479 19.0751 22.2393 19.2921 22.1192C20.1049 21.66 20.6836 20.8875 20.9305 19.9261C21.0539 19.4411 21.0581 18.5313 20.9347 18.1236C20.6922 17.3082 20.2368 16.7374 19.3729 16.1709C19.1857 16.0464 18.6878 15.7503 18.2665 15.5185C17.8452 15.2825 17.4324 15.0464 17.3516 14.9949C17.2707 14.9477 17.1899 14.9048 17.1771 14.9048C17.1643 14.9048 17.1303 14.9778 17.1048 15.0722ZM11.3088 19.1751C10.5811 19.3381 9.78528 19.6944 9.11717 20.1493C8.70438 20.4325 8.34692 20.7287 8.38522 20.7673C8.39373 20.7759 8.60225 20.8231 8.84481 20.866C9.75124 21.0377 9.97678 21.1707 10.8662 22.0333C11.4066 22.5569 11.6152 22.6814 12.0535 22.7458C12.462 22.8016 12.9088 22.5827 13.1173 22.2265C13.2067 22.072 13.228 21.9818 13.228 21.7329C13.228 21.3467 13.1429 21.1578 12.8918 20.9947C12.4067 20.6857 11.8364 20.866 11.7981 21.3467L11.7811 21.5355L11.8152 21.3724C11.896 20.999 12.2918 20.8488 12.6663 21.0505C13.3769 21.4325 12.8961 22.5097 12.096 22.3295C11.6577 22.2308 11.3471 21.9132 11.3173 21.5355C11.2875 21.1879 11.3343 21.0291 11.5215 20.8145C11.7343 20.5699 11.9896 20.4669 12.3726 20.4669C13.0195 20.4669 13.6365 20.9046 14.0025 21.6213C14.0621 21.7372 14.2536 22.1363 14.428 22.5011C14.6919 23.0505 14.7855 23.2093 14.9898 23.4153C15.5558 23.9989 16.2451 24.1019 16.9984 23.72C17.4154 23.5097 17.475 23.4281 17.1303 23.5397C16.9388 23.6041 16.743 23.6299 16.4366 23.6342C16.0536 23.6384 15.9898 23.6256 15.7941 23.5226C15.377 23.3037 15.194 22.9346 15.0366 21.9861C14.8919 21.1149 14.8281 20.8703 14.6408 20.484C14.3642 19.9132 13.8833 19.5098 13.1897 19.2695C12.862 19.1579 12.7514 19.1407 12.2024 19.1279C11.7641 19.115 11.5045 19.1321 11.3088 19.1751Z" fill="white"></path>
  <path d="M11.8708 21.6607C11.9006 21.695 11.9346 21.7122 11.9431 21.7079C11.9644 21.6821 11.9006 21.6006 11.858 21.6006C11.8367 21.6006 11.841 21.6263 11.8708 21.6607Z" fill="white"></path>
  <path d="M2.92547 2.05163C2.98079 2.11171 3.03611 2.15892 3.04462 2.15892C3.05739 2.15892 3.02335 2.11171 2.96803 2.05163C2.9127 1.99154 2.85738 1.94434 2.84887 1.94434C2.8361 1.94434 2.87015 1.99154 2.92547 2.05163ZM3.39358 2.56234C3.39358 2.57093 3.42762 2.60526 3.47018 2.6353C3.53401 2.69109 3.53826 2.6868 3.48294 2.61813C3.42762 2.54947 3.39358 2.52801 3.39358 2.56234ZM3.84041 3.06018C3.88296 3.10739 3.92552 3.14602 3.93828 3.14602C3.95105 3.14602 3.92552 3.10739 3.88296 3.06018C3.84041 3.01297 3.79785 2.97435 3.78508 2.97435C3.77232 2.97435 3.79785 3.01297 3.84041 3.06018ZM4.32979 3.59665C4.38511 3.65673 4.44043 3.70394 4.44894 3.70394C4.46171 3.70394 4.42767 3.65673 4.37234 3.59665C4.31702 3.53656 4.2617 3.48935 4.25319 3.48935C4.24042 3.48935 4.27447 3.53656 4.32979 3.59665ZM4.07446 3.59235C4.07446 3.60094 4.1085 3.63527 4.15106 3.66531C4.21489 3.7211 4.21915 3.71681 4.16382 3.64815C4.1085 3.57948 4.07446 3.55802 4.07446 3.59235ZM4.67023 3.97861C4.67023 3.98719 4.70427 4.02152 4.74683 4.05157C4.81066 4.10736 4.81492 4.10307 4.7596 4.0344C4.70427 3.96573 4.67023 3.94427 4.67023 3.97861ZM4.45745 4.06444C4.45745 4.07303 4.4915 4.10736 4.53405 4.1374C4.59789 4.19319 4.60214 4.1889 4.54682 4.12023C4.4915 4.05157 4.45745 4.03011 4.45745 4.06444ZM5.09578 4.4507C5.09578 4.45928 5.12982 4.49361 5.17238 4.52366C5.23621 4.57945 5.24047 4.57516 5.18515 4.50649C5.12982 4.43782 5.09578 4.41636 5.09578 4.4507ZM5.56389 4.96999C5.61921 5.03008 5.67453 5.07729 5.68304 5.07729C5.69581 5.07729 5.66176 5.03008 5.60644 4.96999C5.55112 4.90991 5.4958 4.8627 5.48729 4.8627C5.47452 4.8627 5.50856 4.90991 5.56389 4.96999ZM5.60644 5.48071C5.60644 5.48929 5.64049 5.52362 5.68304 5.55367C5.74687 5.60946 5.75113 5.60517 5.69581 5.5365C5.64049 5.46783 5.60644 5.44637 5.60644 5.48071ZM6.03199 5.48071C6.03199 5.48929 6.06604 5.52362 6.10859 5.55367C6.17242 5.60946 6.17668 5.60517 6.12136 5.5365C6.06604 5.46783 6.03199 5.44637 6.03199 5.48071ZM5.81922 5.73821C5.81922 5.74679 5.85326 5.78113 5.89582 5.81117C5.95965 5.86696 5.9639 5.86267 5.90858 5.794C5.85326 5.72533 5.81922 5.70388 5.81922 5.73821ZM6.47882 5.97855C6.52138 6.02575 6.56393 6.06438 6.5767 6.06438C6.58946 6.06438 6.56393 6.02575 6.52138 5.97855C6.47882 5.93134 6.43627 5.89271 6.4235 5.89271C6.41073 5.89271 6.43627 5.93134 6.47882 5.97855ZM9.64918 6.14163C9.64918 6.1588 9.72577 6.16738 9.8194 6.1588C9.91302 6.15021 9.98962 6.13305 9.98962 6.12446C9.98962 6.11588 9.91302 6.1073 9.8194 6.1073C9.72577 6.1073 9.64918 6.12017 9.64918 6.14163ZM6.84054 6.38197C6.84054 6.39055 6.87458 6.42488 6.91714 6.45493C6.98097 6.51072 6.98523 6.50643 6.9299 6.43776C6.87458 6.36909 6.84054 6.34763 6.84054 6.38197ZM7.30865 6.90126C7.36397 6.96135 7.41929 7.00856 7.4278 7.00856C7.44057 7.00856 7.40652 6.96135 7.3512 6.90126C7.29588 6.84118 7.24056 6.79397 7.23205 6.79397C7.21928 6.79397 7.25332 6.84118 7.30865 6.90126ZM5.46175 6.95706C5.44899 6.97852 5.46601 6.99568 5.50005 6.99568C5.5341 6.99568 5.55112 6.97852 5.53835 6.95706C5.52559 6.93989 5.50856 6.92272 5.50005 6.92272C5.49154 6.92272 5.47452 6.93989 5.46175 6.95706ZM12.3301 7.11156C12.3301 7.12014 12.3642 7.15448 12.4067 7.18452C12.4706 7.24031 12.4748 7.23602 12.4195 7.16735C12.3642 7.09868 12.3301 7.07722 12.3301 7.11156ZM6.9682 7.15448C6.9682 7.16306 7.00225 7.19739 7.0448 7.22743C7.10864 7.28323 7.11289 7.27893 7.05757 7.21027C7.00225 7.1416 6.9682 7.12014 6.9682 7.15448ZM7.69164 7.32614C7.69164 7.33473 7.72569 7.36906 7.76824 7.3991C7.83207 7.4549 7.83633 7.4506 7.78101 7.38194C7.72569 7.31327 7.69164 7.29181 7.69164 7.32614ZM8.15975 7.84115C8.15975 7.84973 8.19379 7.88407 8.23635 7.91411C8.30018 7.9699 8.30443 7.96561 8.24911 7.89694C8.19379 7.82827 8.15975 7.80682 8.15975 7.84115ZM13.0961 7.88407C13.0961 7.89265 13.1302 7.92698 13.1727 7.95703C13.2366 8.01282 13.2408 8.00853 13.1855 7.93986C13.1302 7.87119 13.0961 7.84973 13.0961 7.88407ZM14.0238 8.02569C14.0536 8.03857 14.0919 8.03428 14.1047 8.0214C14.1217 8.00853 14.0962 7.99565 14.0494 7.99994C14.0026 7.99994 13.9898 8.01282 14.0238 8.02569ZM8.60658 8.33899C8.64913 8.3862 8.69169 8.42482 8.70445 8.42482C8.71722 8.42482 8.69169 8.3862 8.64913 8.33899C8.60658 8.29178 8.56402 8.25315 8.55125 8.25315C8.53849 8.25315 8.56402 8.29178 8.60658 8.33899ZM8.96829 8.74241C8.96829 8.75099 9.00234 8.78533 9.04489 8.81537C9.10873 8.87116 9.11298 8.86687 9.05766 8.7982C9.00234 8.72953 8.96829 8.70808 8.96829 8.74241ZM8.45763 8.99991C8.45763 9.0085 8.49168 9.04283 8.53423 9.07287C8.59806 9.12866 8.60232 9.12437 8.547 9.0557C8.49168 8.98704 8.45763 8.96558 8.45763 8.99991ZM19.4794 8.99991C19.4794 9.0085 19.5134 9.04283 19.556 9.07287C19.6198 9.12866 19.6241 9.12437 19.5688 9.0557C19.5134 8.98704 19.4794 8.96558 19.4794 8.99991ZM9.41512 9.24025C9.45768 9.28746 9.50023 9.32608 9.513 9.32608C9.52577 9.32608 9.50023 9.28746 9.45768 9.24025C9.41512 9.19304 9.37257 9.15441 9.3598 9.15441C9.34703 9.15441 9.37257 9.19304 9.41512 9.24025ZM9.73429 9.60075C9.73429 9.60933 9.76833 9.64367 9.81088 9.67371C9.87472 9.7295 9.87897 9.72521 9.82365 9.65654C9.76833 9.58788 9.73429 9.56642 9.73429 9.60075ZM18.3347 9.65225C18.3347 9.69946 18.3474 9.71234 18.3602 9.678C18.373 9.64796 18.3687 9.60934 18.3559 9.59646C18.3432 9.57929 18.3304 9.60504 18.3347 9.65225ZM18.8879 9.69517C18.8879 9.74238 18.9007 9.75525 18.9134 9.72092C18.9262 9.69088 18.9219 9.65225 18.9092 9.63938C18.8964 9.62221 18.8836 9.64796 18.8879 9.69517ZM10.4577 9.77671C10.513 9.8368 10.5684 9.884 10.5769 9.884C10.5896 9.884 10.5556 9.8368 10.5003 9.77671C10.445 9.71663 10.3896 9.66942 10.3811 9.66942C10.3684 9.66942 10.4024 9.71663 10.4577 9.77671ZM18.7219 9.79817C18.7219 9.85825 18.7304 9.87971 18.7432 9.84967C18.7517 9.82392 18.7517 9.77242 18.7432 9.74238C18.7304 9.71663 18.7219 9.73809 18.7219 9.79817ZM14.0536 9.84109C14.0962 9.8883 14.1387 9.92692 14.1515 9.92692C14.1643 9.92692 14.1387 9.8883 14.0962 9.84109C14.0536 9.79388 14.0111 9.75525 13.9983 9.75525C13.9855 9.75525 14.0111 9.79388 14.0536 9.84109ZM18.7177 9.99559C18.7177 10.0428 18.7304 10.0557 18.7432 10.0213C18.756 9.9913 18.7517 9.95267 18.7389 9.9398C18.7262 9.92263 18.7134 9.94838 18.7177 9.99559ZM10.1386 10.0557C10.1811 10.1029 10.2237 10.1415 10.2364 10.1415C10.2492 10.1415 10.2237 10.1029 10.1811 10.0557C10.1386 10.0085 10.096 9.96984 10.0832 9.96984C10.0705 9.96984 10.096 10.0085 10.1386 10.0557ZM14.4153 10.2016C14.4153 10.2102 14.4494 10.2445 14.4919 10.2746C14.5558 10.3303 14.56 10.3261 14.5047 10.2574C14.4494 10.1887 14.4153 10.1673 14.4153 10.2016ZM8.03208 10.8453C8.03208 10.8539 8.06613 10.8883 8.10868 10.9183C8.17251 10.9741 8.17677 10.9698 8.12145 10.9011C8.06613 10.8325 8.03208 10.811 8.03208 10.8453ZM9.98536 11.3303L9.88323 11.4505L10.0024 11.3475C10.1088 11.2488 10.1386 11.2144 10.1045 11.2144C10.096 11.2144 10.0449 11.2659 9.98536 11.3303ZM17.4708 11.2874C17.4963 11.296 17.5474 11.296 17.5772 11.2874C17.6027 11.2745 17.5814 11.2659 17.5219 11.2659C17.4623 11.2659 17.441 11.2745 17.4708 11.2874ZM18.1942 11.3303C18.2198 11.3389 18.2708 11.3389 18.3006 11.3303C18.3262 11.3174 18.3049 11.3089 18.2453 11.3089C18.1857 11.3089 18.1644 11.3174 18.1942 11.3303ZM20.1603 12.0041C20.1603 12.0127 20.1943 12.047 20.2369 12.0771C20.3007 12.1329 20.305 12.1286 20.2496 12.0599C20.1943 11.9912 20.1603 11.9698 20.1603 12.0041ZM7.74271 13.0599C7.74271 13.12 7.75122 13.1414 7.76398 13.1114C7.7725 13.0856 7.7725 13.0341 7.76398 13.0041C7.75122 12.9783 7.74271 12.9998 7.74271 13.0599ZM15.3303 13.1028C15.3728 13.15 15.4154 13.1886 15.4282 13.1886C15.4409 13.1886 15.4154 13.15 15.3728 13.1028C15.3303 13.0556 15.2877 13.017 15.275 13.017C15.2622 13.017 15.2877 13.0556 15.3303 13.1028ZM10.079 13.1715C10.079 13.2187 10.0917 13.2315 10.1045 13.1972C10.1173 13.1672 10.113 13.1285 10.1003 13.1157C10.0875 13.0985 10.0747 13.1242 10.079 13.1715ZM15.4792 13.2487C15.4792 13.2573 15.5133 13.2916 15.5558 13.3217C15.6197 13.3775 15.6239 13.3732 15.5686 13.3045C15.5133 13.2358 15.4792 13.2144 15.4792 13.2487ZM10.662 13.6478C10.7131 13.6564 10.7897 13.6564 10.8322 13.6478C10.8705 13.635 10.828 13.6264 10.7343 13.6307C10.6407 13.6307 10.6067 13.6393 10.662 13.6478ZM21.7476 15.6349C21.7476 15.8109 21.7561 15.8838 21.7646 15.7937C21.7731 15.7079 21.7731 15.5619 21.7646 15.4718C21.7561 15.386 21.7476 15.4589 21.7476 15.6349ZM17.024 15.6564C17.024 15.798 17.0325 15.8495 17.041 15.7722C17.0495 15.695 17.0495 15.5791 17.041 15.5147C17.0325 15.4504 17.024 15.5147 17.024 15.6564ZM6.84905 16.0212C6.84905 16.0812 6.85756 16.1027 6.87033 16.0727C6.87884 16.0469 6.87884 15.9954 6.87033 15.9654C6.85756 15.9396 6.84905 15.9611 6.84905 16.0212ZM6.84479 16.2615C6.84479 16.3087 6.85756 16.3216 6.87033 16.2872C6.88309 16.2572 6.87884 16.2186 6.86607 16.2057C6.85331 16.1885 6.84054 16.2143 6.84479 16.2615ZM19.9475 16.5962C19.9475 16.6048 19.9816 16.6392 20.0241 16.6692C20.0879 16.725 20.0922 16.7207 20.0369 16.652C19.9816 16.5834 19.9475 16.5619 19.9475 16.5962ZM20.2454 16.8967C20.2454 16.9052 20.2794 16.9396 20.322 16.9696C20.3858 17.0254 20.3901 17.0211 20.3348 16.9525C20.2794 16.8838 20.2454 16.8623 20.2454 16.8967ZM7.30865 17.2014C7.3895 17.2829 7.46184 17.3516 7.47461 17.3516C7.48738 17.3516 7.43205 17.2829 7.3512 17.2014C7.27035 17.1198 7.198 17.0512 7.18524 17.0512C7.17247 17.0512 7.22779 17.1198 7.30865 17.2014ZM15.9856 17.2958L15.8409 17.4589L16.0027 17.313C16.0878 17.2314 16.1601 17.1585 16.1601 17.1499C16.1601 17.1155 16.1261 17.1499 15.9856 17.2958ZM4.50426 17.7636C4.50426 17.8108 4.51703 17.8237 4.5298 17.7893C4.54256 17.7593 4.53831 17.7207 4.52554 17.7078C4.51278 17.6906 4.50001 17.7164 4.50426 17.7636ZM13.8962 18.0683C13.9217 18.0769 13.9728 18.0769 14.0026 18.0683C14.0281 18.0554 14.0068 18.0468 13.9472 18.0468C13.8877 18.0468 13.8664 18.0554 13.8962 18.0683ZM13.3004 18.1112C13.3259 18.1198 13.377 18.1198 13.4068 18.1112C13.4323 18.0983 13.411 18.0898 13.3515 18.0898C13.2919 18.0898 13.2706 18.0983 13.3004 18.1112ZM8.45763 18.1413C8.45763 18.1498 8.49168 18.1842 8.53423 18.2142C8.59806 18.27 8.60232 18.2657 8.547 18.1971C8.49168 18.1284 8.45763 18.1069 8.45763 18.1413ZM12.7897 18.1541C12.8195 18.167 12.8578 18.1627 12.8706 18.1498C12.8876 18.137 12.8621 18.1241 12.8153 18.1284C12.7685 18.1284 12.7557 18.1413 12.7897 18.1541ZM4.50426 18.2786C4.50426 18.3258 4.51703 18.3387 4.5298 18.3043C4.54256 18.2743 4.53831 18.2357 4.52554 18.2228C4.51278 18.2056 4.50001 18.2314 4.50426 18.2786ZM5.35537 18.3215C5.35537 18.3687 5.36813 18.3816 5.3809 18.3473C5.39367 18.3172 5.38941 18.2786 5.37664 18.2657C5.36388 18.2486 5.35111 18.2743 5.35537 18.3215ZM21.0199 18.6391C21.0199 18.6992 21.0284 18.7206 21.0412 18.6906C21.0497 18.6648 21.0497 18.6133 21.0412 18.5833C21.0284 18.5576 21.0199 18.579 21.0199 18.6391ZM21.0199 19.2185C21.0199 19.2871 21.0284 19.3129 21.0412 19.27C21.0497 19.2314 21.0497 19.1713 21.0412 19.1412C21.0284 19.1155 21.0199 19.1455 21.0199 19.2185ZM14.2238 19.8837C14.2664 19.9309 14.309 19.9695 14.3217 19.9695C14.3345 19.9695 14.309 19.9309 14.2664 19.8837C14.2238 19.8365 14.1813 19.7979 14.1685 19.7979C14.1558 19.7979 14.1813 19.8365 14.2238 19.8837ZM12.3004 20.4717C12.3387 20.4802 12.4067 20.4802 12.4493 20.4717C12.4876 20.4588 12.4536 20.4502 12.3727 20.4502C12.2918 20.4502 12.2578 20.4588 12.3004 20.4717ZM8.47465 20.6219L8.3938 20.7206L8.49168 20.639C8.58104 20.5618 8.60658 20.5275 8.57253 20.5275C8.56402 20.5275 8.52147 20.5704 8.47465 20.6219ZM19.3602 20.9995C19.3602 21.0811 19.3688 21.1154 19.3815 21.0725C19.39 21.0339 19.39 20.9652 19.3815 20.9223C19.3688 20.8837 19.3602 20.918 19.3602 20.9995ZM13.543 20.9995C13.5855 21.0467 13.6281 21.0854 13.6408 21.0854C13.6536 21.0854 13.6281 21.0467 13.5855 20.9995C13.543 20.9523 13.5004 20.9137 13.4876 20.9137C13.4749 20.9137 13.5004 20.9523 13.543 20.9995ZM11.9003 21.0296C11.845 21.0983 11.8493 21.1025 11.9174 21.0468C11.9855 20.991 12.0067 20.9566 11.9727 20.9566C11.9642 20.9566 11.9301 20.991 11.9003 21.0296ZM10.3301 21.5317C10.3301 21.5403 10.3641 21.5746 10.4067 21.6047C10.4705 21.6605 10.4747 21.6562 10.4194 21.5875C10.3641 21.5188 10.3301 21.4974 10.3301 21.5317ZM13.2323 21.6004C13.2323 21.6605 13.2408 21.6819 13.2536 21.6519C13.2621 21.6261 13.2621 21.5746 13.2536 21.5446C13.2408 21.5188 13.2323 21.5403 13.2323 21.6004ZM19.8581 21.7163C19.8028 21.7849 19.8071 21.7892 19.8752 21.7334C19.9135 21.7034 19.9475 21.669 19.9475 21.6605C19.9475 21.6261 19.9135 21.6476 19.8581 21.7163ZM13.2323 21.815C13.2323 21.8751 13.2408 21.8965 13.2536 21.8665C13.2621 21.8407 13.2621 21.7892 13.2536 21.7592C13.2408 21.7334 13.2323 21.7549 13.2323 21.815ZM12.2365 22.36C12.2621 22.3686 12.3131 22.3686 12.3429 22.36C12.3684 22.3471 12.3472 22.3386 12.2876 22.3386C12.228 22.3386 12.2067 22.3471 12.2365 22.36ZM15.5431 23.36C15.5856 23.4072 15.6282 23.4458 15.6409 23.4458C15.6537 23.4458 15.6282 23.4072 15.5856 23.36C15.5431 23.3128 15.5005 23.2741 15.4877 23.2741C15.475 23.2741 15.5005 23.3128 15.5431 23.36Z" fill="#BFD4BF" fill-opacity="0.9"></path>
  <path d="M5.22363 4.57958C5.22363 4.58817 5.25768 4.6225 5.30023 4.65254C5.36406 4.70833 5.36832 4.70404 5.313 4.63537C5.25768 4.56671 5.22363 4.54525 5.22363 4.57958ZM5.69174 5.09459C5.69174 5.10317 5.72578 5.1375 5.76834 5.16755C5.83217 5.22334 5.83643 5.21905 5.7811 5.15038C5.72578 5.08171 5.69174 5.06025 5.69174 5.09459ZM6.96839 6.51085C6.96839 6.51944 7.00244 6.55377 7.04499 6.58381C7.10882 6.6396 7.11308 6.63531 7.05776 6.56664C7.00244 6.49798 6.96839 6.47652 6.96839 6.51085ZM9.4451 7.13744C9.4451 7.21899 9.45361 7.25332 9.46638 7.2104C9.47489 7.17178 9.47489 7.10311 9.46638 7.06019C9.45361 7.02157 9.4451 7.0559 9.4451 7.13744ZM14.6836 7.98291C14.7219 7.99149 14.79 7.99149 14.8326 7.98291C14.8709 7.97003 14.8368 7.96145 14.756 7.96145C14.6751 7.96145 14.6411 7.97003 14.6836 7.98291ZM11.6835 10.4721C11.7133 10.485 11.7516 10.4807 11.7644 10.4678C11.7814 10.4549 11.7558 10.4421 11.709 10.4464C11.6622 10.4464 11.6495 10.4592 11.6835 10.4721ZM9.61106 10.5966C9.61106 10.6438 9.62383 10.6566 9.6366 10.6223C9.64936 10.5923 9.64511 10.5536 9.63234 10.5408C9.61957 10.5236 9.60681 10.5494 9.61106 10.5966ZM9.47489 10.8584C9.41956 10.927 9.42382 10.9313 9.49191 10.8755C9.53021 10.8455 9.56425 10.8111 9.56425 10.8026C9.56425 10.7682 9.53021 10.7897 9.47489 10.8584ZM8.61953 11.1588C8.64506 11.1674 8.69613 11.1674 8.72592 11.1588C8.75145 11.1459 8.73017 11.1373 8.6706 11.1373C8.61102 11.1373 8.58974 11.1459 8.61953 11.1588ZM10.4579 21.6606C10.4579 21.6692 10.492 21.7035 10.5345 21.7336C10.5983 21.7893 10.6026 21.7851 10.5473 21.7164C10.492 21.6477 10.4579 21.6263 10.4579 21.6606ZM12.7516 22.1456C12.6963 22.2142 12.7006 22.2185 12.7687 22.1627C12.8367 22.1069 12.858 22.0726 12.824 22.0726C12.8155 22.0726 12.7814 22.1069 12.7516 22.1456Z" fill="#BFD4BF" fill-opacity="0.8"></path>
  <path d="M2.18556 1.30899C2.19833 1.33045 2.22386 1.33903 2.23663 1.32616C2.24939 1.31328 2.28769 1.32616 2.32599 1.35191C2.38131 1.39482 2.38557 1.39482 2.34302 1.34332C2.27918 1.27466 2.14726 1.24461 2.18556 1.30899ZM16.2543 15.4201C16.2543 15.5017 16.2628 15.536 16.2756 15.4931C16.2841 15.4545 16.2841 15.3858 16.2756 15.3429C16.2628 15.3043 16.2543 15.3386 16.2543 15.4201ZM12.152 22.789C12.1775 22.7976 12.2286 22.7976 12.2584 22.789C12.2839 22.7761 12.2626 22.7676 12.203 22.7676C12.1435 22.7676 12.1222 22.7761 12.152 22.789Z" fill="#BFD4BF" fill-opacity="0.5"></path>
  <path d="M7.479 7.06884C7.479 7.07742 7.51305 7.11176 7.5556 7.1418C7.61944 7.19759 7.62369 7.1933 7.56837 7.12463C7.51305 7.05597 7.479 7.03451 7.479 7.06884ZM14.7176 11.3262C14.7176 11.3734 14.7304 11.3863 14.7432 11.352C14.7559 11.3219 14.7517 11.2833 14.7389 11.2704C14.7261 11.2533 14.7134 11.279 14.7176 11.3262ZM14.7176 11.5837C14.7176 11.6309 14.7304 11.6438 14.7432 11.6095C14.7559 11.5794 14.7517 11.5408 14.7389 11.5279C14.7261 11.5108 14.7134 11.5365 14.7176 11.5837ZM8.76417 18.8968C8.76417 18.9569 8.77268 18.9783 8.78545 18.9483C8.79396 18.9226 8.79396 18.8711 8.78545 18.841C8.77268 18.8153 8.76417 18.8367 8.76417 18.8968ZM12.2367 19.0985C12.2665 19.1114 12.3048 19.1071 12.3175 19.0942C12.3345 19.0813 12.309 19.0685 12.2622 19.0728C12.2154 19.0728 12.2026 19.0856 12.2367 19.0985ZM10.6919 21.901C10.7345 21.9482 10.777 21.9868 10.7898 21.9868C10.8026 21.9868 10.777 21.9482 10.7345 21.901C10.6919 21.8538 10.6494 21.8152 10.6366 21.8152C10.6238 21.8152 10.6494 21.8538 10.6919 21.901Z" fill="#BFD4BF" fill-opacity="0.6"></path>
  <path d="M2.37256 1.4038C2.37256 1.41238 2.4066 1.44672 2.44916 1.47676C2.51299 1.53255 2.51725 1.52826 2.46192 1.45959C2.4066 1.39093 2.37256 1.36947 2.37256 1.4038ZM3.69177 2.86298C3.69177 2.87157 3.72581 2.9059 3.76837 2.93594C3.8322 2.99173 3.83645 2.98744 3.78113 2.91878C3.72581 2.85011 3.69177 2.82865 3.69177 2.86298ZM11.9049 7.28345C11.9049 7.29203 11.9389 7.32637 11.9815 7.35641C12.0453 7.4122 12.0496 7.40791 11.9943 7.33924C11.9389 7.27057 11.9049 7.24911 11.9049 7.28345ZM20.65 16.1072C20.6925 16.1544 20.7351 16.193 20.7478 16.193C20.7606 16.193 20.7351 16.1544 20.6925 16.1072C20.65 16.06 20.6074 16.0214 20.5947 16.0214C20.5819 16.0214 20.6074 16.06 20.65 16.1072ZM12.9688 21.0169C12.9688 21.0255 13.0028 21.0598 13.0454 21.0899C13.1092 21.1457 13.1135 21.1414 13.0581 21.0727C13.0028 21.0041 12.9688 20.9826 12.9688 21.0169ZM14.9901 23.489C15.0327 23.5362 15.0753 23.5748 15.088 23.5748C15.1008 23.5748 15.0753 23.5362 15.0327 23.489C14.9901 23.4417 14.9476 23.4031 14.9348 23.4031C14.9221 23.4031 14.9476 23.4417 14.9901 23.489Z" fill="#BFD4BF" fill-opacity="0.4"></path>
  <path d="M12.7983 7.54577C12.8536 7.60585 12.9089 7.65306 12.9174 7.65306C12.9302 7.65306 12.8961 7.60585 12.8408 7.54577C12.7855 7.48569 12.7302 7.43848 12.7217 7.43848C12.7089 7.43848 12.7429 7.48569 12.7983 7.54577ZM14.492 7.98352C14.5175 7.99211 14.5686 7.99211 14.5984 7.98352C14.6239 7.97065 14.6026 7.96207 14.543 7.96207C14.4835 7.96207 14.4622 7.97065 14.492 7.98352ZM14.9175 7.98352C14.9473 7.9964 14.9856 7.99211 14.9984 7.97923C15.0154 7.96636 14.9899 7.95348 14.943 7.95777C14.8962 7.95777 14.8835 7.97065 14.9175 7.98352ZM13.2962 8.08653C13.326 8.11657 13.36 8.12944 13.3728 8.11657C13.3855 8.10369 13.3643 8.07794 13.3217 8.06507C13.2621 8.03932 13.2579 8.04361 13.2962 8.08653ZM10.3343 10.5113C10.3343 10.5586 10.3471 10.5714 10.3599 10.5371C10.3726 10.5071 10.3684 10.4684 10.3556 10.4556C10.3428 10.4384 10.3301 10.4641 10.3343 10.5113ZM14.7175 11.4555C14.7175 11.5027 14.7303 11.5156 14.743 11.4813C14.7558 11.4512 14.7515 11.4126 14.7388 11.3997C14.726 11.3826 14.7132 11.4083 14.7175 11.4555ZM15.6878 16.8245C15.6324 16.8931 15.6367 16.8974 15.7048 16.8416C15.7729 16.7858 15.7941 16.7515 15.7601 16.7515C15.7516 16.7515 15.7175 16.7858 15.6878 16.8245ZM11.9812 19.0991C12.0323 19.1076 12.1089 19.1076 12.1514 19.0991C12.1897 19.0862 12.1472 19.0776 12.0536 19.0819C11.9599 19.0819 11.9259 19.0905 11.9812 19.0991ZM10.7982 22.0003C10.7982 22.0088 10.862 22.0689 10.9386 22.1419L11.0748 22.2663L10.9514 22.1247C10.8322 21.996 10.7982 21.9659 10.7982 22.0003ZM16.3857 23.6483C16.424 23.6569 16.4835 23.6569 16.5133 23.6483C16.5389 23.6354 16.5091 23.6268 16.4367 23.6268C16.3686 23.6268 16.3431 23.6354 16.3857 23.6483Z" fill="#BFD4BF" fill-opacity="0.7"></path>
  <path d="M3.81934 2.99169C3.81934 3.00028 3.85338 3.03461 3.89594 3.06465C3.95977 3.12044 3.96402 3.11615 3.9087 3.04748C3.85338 2.97882 3.81934 2.95736 3.81934 2.99169ZM4.24489 3.46378C4.24489 3.47236 4.27893 3.5067 4.32149 3.53674C4.38532 3.59253 4.38957 3.58824 4.33425 3.51957C4.27893 3.4509 4.24489 3.42945 4.24489 3.46378ZM19.4583 8.94001C19.5009 8.98721 19.5434 9.02584 19.5562 9.02584C19.569 9.02584 19.5434 8.98721 19.5009 8.94001C19.4583 8.8928 19.4158 8.85417 19.403 8.85417C19.3902 8.85417 19.4158 8.8928 19.4583 8.94001ZM10.9601 12.0601C10.9899 12.073 11.0282 12.0687 11.0409 12.0558C11.058 12.0429 11.0324 12.03 10.9856 12.0343C10.9388 12.0343 10.926 12.0472 10.9601 12.0601ZM16.6369 15.6351C16.6369 15.6952 16.6454 15.7166 16.6582 15.6866C16.6667 15.6608 16.6667 15.6093 16.6582 15.5793C16.6454 15.5535 16.6369 15.575 16.6369 15.6351ZM16.6369 15.9355C16.6369 15.9956 16.6454 16.017 16.6582 15.987C16.6667 15.9612 16.6667 15.9097 16.6582 15.8797C16.6454 15.854 16.6369 15.8754 16.6369 15.9355ZM16.0284 17.296C15.9731 17.3646 15.9773 17.3689 16.0454 17.3131C16.0837 17.2831 16.1178 17.2488 16.1178 17.2402C16.1178 17.2058 16.0837 17.2273 16.0284 17.296Z" fill="#BFD4BF" fill-opacity="0.2"></path>
  <path d="M14.1177 9.94482C14.1177 9.9534 14.1518 9.98773 14.1943 10.0178C14.2581 10.0736 14.2624 10.0693 14.2071 10.0006C14.1518 9.93194 14.1177 9.91048 14.1177 9.94482ZM14.2879 10.1165C14.2879 10.1251 14.322 10.1594 14.3645 10.1894C14.4284 10.2452 14.4326 10.2409 14.3773 10.1723C14.322 10.1036 14.2879 10.0822 14.2879 10.1165ZM16.6327 15.7901C16.6327 15.8373 16.6455 15.8502 16.6583 15.8159C16.671 15.7858 16.6668 15.7472 16.654 15.7343C16.6412 15.7172 16.6285 15.7429 16.6327 15.7901ZM20.1605 16.7729C20.2159 16.833 20.2712 16.8802 20.2797 16.8802C20.2925 16.8802 20.2584 16.833 20.2031 16.7729C20.1478 16.7128 20.0925 16.6656 20.0839 16.6656C20.0712 16.6656 20.1052 16.7128 20.1605 16.7729ZM12.3644 20.8157C12.3942 20.8286 12.4325 20.8243 12.4453 20.8114C12.4623 20.7986 12.4368 20.7857 12.39 20.79C12.3432 20.79 12.3304 20.8029 12.3644 20.8157Z" fill="#BFD4BF" fill-opacity="0.3"></path>
  <path d="M2.96826 2.04736C2.96826 2.05594 3.00231 2.09027 3.04486 2.12031C3.10869 2.17611 3.11295 2.17182 3.05763 2.10315C3.00231 2.03448 2.96826 2.01302 2.96826 2.04736ZM3.43637 2.56236C3.43637 2.57094 3.47041 2.60528 3.51297 2.63532C3.5768 2.69111 3.58106 2.68682 3.52573 2.61815C3.47041 2.54949 3.43637 2.52803 3.43637 2.56236ZM4.37258 3.59237C4.37258 3.60096 4.40662 3.63529 4.44918 3.66533C4.51301 3.72112 4.51727 3.71683 4.46195 3.64816C4.40662 3.5795 4.37258 3.55804 4.37258 3.59237ZM4.75558 4.02154C4.75558 4.03013 4.78962 4.06446 4.83217 4.0945C4.89601 4.15029 4.90026 4.146 4.84494 4.07734C4.78962 4.00867 4.75558 3.98721 4.75558 4.02154ZM4.96835 4.75113C4.96835 4.75972 5.0024 4.79405 5.04495 4.82409C5.10878 4.87989 5.11304 4.87559 5.05772 4.80693C5.0024 4.73826 4.96835 4.7168 4.96835 4.75113ZM5.60668 4.96572C5.60668 4.9743 5.64072 5.00864 5.68328 5.03868C5.74711 5.09447 5.75136 5.09018 5.69604 5.02151C5.64072 4.95284 5.60668 4.93139 5.60668 4.96572ZM6.07478 5.48073C6.07478 5.48931 6.10883 5.52364 6.15138 5.55368C6.21522 5.60948 6.21947 5.60519 6.16415 5.53652C6.10883 5.46785 6.07478 5.44639 6.07478 5.48073ZM7.35144 6.89699C7.35144 6.90557 7.38548 6.93991 7.42804 6.96995C7.49187 7.02574 7.49612 7.02145 7.4408 6.95278C7.38548 6.88412 7.35144 6.86266 7.35144 6.89699ZM7.77699 7.36908C7.77699 7.37766 7.81103 7.412 7.85359 7.44204C7.91742 7.49783 7.92167 7.49354 7.86635 7.42487C7.81103 7.3562 7.77699 7.33475 7.77699 7.36908ZM8.20254 7.84117C8.20254 7.84975 8.23658 7.88409 8.27914 7.91413C8.34297 7.96992 8.34723 7.96563 8.2919 7.89696C8.23658 7.82829 8.20254 7.80683 8.20254 7.84117ZM8.62809 8.31326C8.62809 8.32184 8.66213 8.35617 8.70469 8.38622C8.76852 8.44201 8.77278 8.43772 8.71746 8.36905C8.66213 8.30038 8.62809 8.27892 8.62809 8.31326ZM19.5647 9.04285C19.5647 9.05143 19.5988 9.08576 19.6413 9.11581C19.7052 9.1716 19.7094 9.16731 19.6541 9.09864C19.5988 9.02997 19.5647 9.00851 19.5647 9.04285ZM10.3728 9.72952C10.3728 9.7381 10.4069 9.77244 10.4494 9.80248C10.5133 9.85827 10.5175 9.85398 10.4622 9.78531C10.4069 9.71665 10.3728 9.69519 10.3728 9.72952ZM7.30888 17.1542C7.30888 17.1628 7.34293 17.1971 7.38548 17.2271C7.44931 17.2829 7.45357 17.2786 7.39825 17.21C7.34293 17.1413 7.30888 17.1198 7.30888 17.1542ZM14.2454 19.8623C14.3007 19.9223 14.356 19.9695 14.3645 19.9695C14.3773 19.9695 14.3432 19.9223 14.2879 19.8623C14.2326 19.8022 14.1773 19.755 14.1688 19.755C14.156 19.755 14.19 19.8022 14.2454 19.8623ZM8.49617 20.5575C8.44085 20.6262 8.4451 20.6305 8.51319 20.5747C8.58128 20.5189 8.60256 20.4846 8.56851 20.4846C8.56 20.4846 8.52596 20.5189 8.49617 20.5575Z" fill="white" fill-opacity="0.1"></path>
  <path d="M20.1478 9.80204C20.1776 9.83208 20.2117 9.84496 20.2244 9.83208C20.2372 9.81921 20.2159 9.79346 20.1734 9.78058C20.1138 9.75483 20.1095 9.75912 20.1478 9.80204Z" fill="#80AA80" fill-opacity="0.2"></path>
</svg>
