<?xml version="1.0" encoding="UTF-8"?>
<svg xmlns="http://www.w3.org/2000/svg" width="25" height="25" viewBox="0 0 25 25" fill="none">
  <path d="M22.96 5.95026C22.96 6.04526 22.97 6.08526 22.985 6.03526C22.995 5.99026 22.995 5.91026 22.985 5.86026C22.97 5.81526 22.96 5.85526 22.96 5.95026ZM1.95996 12.4503C1.95996 12.5203 1.96996 12.5453 1.98496 12.5103C1.99496 12.4803 1.99496 12.4203 1.98496 12.3853C1.96996 12.3553 1.95996 12.3803 1.95996 12.4503ZM23.01 12.7503C23.01 12.8203 23.02 12.8453 23.035 12.8103C23.045 12.7803 23.045 12.7203 23.035 12.6853C23.02 12.6553 23.01 12.6803 23.01 12.7503ZM19.765 14.5003C19.765 14.6503 19.775 14.7153 19.785 14.6353C19.795 14.5603 19.795 14.4403 19.785 14.3603C19.775 14.2853 19.765 14.3503 19.765 14.5003ZM1.96496 16.4753C1.96496 16.5853 1.97496 16.6253 1.98496 16.5603C1.99496 16.5003 1.99496 16.4103 1.98496 16.3603C1.96996 16.3153 1.95996 16.3653 1.96496 16.4753ZM19.705 16.8303C19.705 16.8853 19.72 16.9003 19.735 16.8603C19.75 16.8253 19.745 16.7803 19.73 16.7653C19.715 16.7453 19.7 16.7753 19.705 16.8303ZM23.01 18.8003C23.01 18.8703 23.02 18.8953 23.035 18.8603C23.045 18.8303 23.045 18.7703 23.035 18.7353C23.02 18.7053 23.01 18.7303 23.01 18.8003ZM12.49 20.9853C12.525 21.0003 12.57 20.9953 12.585 20.9803C12.605 20.9653 12.575 20.9503 12.52 20.9553C12.465 20.9553 12.45 20.9703 12.49 20.9853Z" fill="white" fill-opacity="0.1"></path>
  <path d="M1.95996 12.2503C1.95996 12.3203 1.96996 12.3453 1.98496 12.3103C1.99496 12.2803 1.99496 12.2203 1.98496 12.1853C1.96996 12.1553 1.95996 12.1803 1.95996 12.2503ZM23.015 13.0503C23.015 13.1753 23.025 13.2253 23.035 13.1603C23.045 13.1003 23.045 13.0003 23.035 12.9353C23.025 12.8753 23.015 12.9253 23.015 13.0503ZM19.765 14.9753C19.765 15.1103 19.775 15.1653 19.785 15.0853C19.795 15.0103 19.795 14.9003 19.785 14.8353C19.775 14.7753 19.765 14.8353 19.765 14.9753ZM1.96496 16.8253C1.96496 16.9353 1.97496 16.9753 1.98496 16.9103C1.99496 16.8503 1.99496 16.7603 1.98496 16.7103C1.96996 16.6653 1.95996 16.7153 1.96496 16.8253ZM19.705 16.9803C19.705 17.0353 19.72 17.0503 19.735 17.0103C19.75 16.9753 19.745 16.9303 19.73 16.9153C19.715 16.8953 19.7 16.9253 19.705 16.9803ZM23.015 18.5253C23.015 18.6353 23.025 18.6753 23.035 18.6103C23.045 18.5503 23.045 18.4603 23.035 18.4103C23.02 18.3653 23.01 18.4153 23.015 18.5253Z" fill="white" fill-opacity="0.2"></path>
  <path d="M22.9148 7.22543C22.9148 7.44543 22.9248 7.53043 22.9348 7.41043C22.9448 7.29543 22.9448 7.11543 22.9348 7.01043C22.9248 6.91043 22.9148 7.00543 22.9148 7.22543ZM5.22477 9.40043C5.22477 10.4054 5.22977 10.8154 5.23477 10.3104C5.24477 9.81043 5.24477 8.99043 5.23477 8.48543C5.22977 7.98543 5.22477 8.39543 5.22477 9.40043ZM2.00977 15.9254C2.00977 16.0054 2.01977 16.0354 2.03477 15.9854C2.04477 15.9404 2.04477 15.8704 2.03477 15.8354C2.01977 15.8054 2.00977 15.8404 2.00977 15.9254ZM19.7548 16.4804C19.7548 16.5354 19.7698 16.5504 19.7848 16.5104C19.7998 16.4754 19.7948 16.4304 19.7798 16.4154C19.7648 16.3954 19.7498 16.4254 19.7548 16.4804Z" fill="white" fill-opacity="0.8"></path>
  <path d="M12.5001 0.535476C12.4601 0.550476 12.3901 0.570476 12.3501 0.580476C12.3101 0.595476 12.2701 0.600476 12.2701 0.590476C12.2651 0.580476 12.2151 0.620476 12.1551 0.670476C12.0951 0.725476 12.0501 0.745476 12.0501 0.725476C12.0501 0.705476 12.0051 0.725476 11.9501 0.775476C11.8951 0.825476 11.8501 0.845476 11.8501 0.820476C11.8501 0.795476 11.8301 0.800476 11.8101 0.830476C11.7801 0.875476 11.4901 1.02548 11.3751 1.05548C11.3501 1.06048 11.2951 1.10048 11.2601 1.13548C11.2201 1.17048 11.1701 1.19048 11.1451 1.17548C11.1201 1.15548 11.1001 1.16548 11.1001 1.19548C11.1001 1.22048 11.0301 1.27548 10.9501 1.32048C10.8551 1.36548 10.8101 1.37048 10.8351 1.33548C10.8501 1.30048 10.8201 1.32048 10.7601 1.37048C10.7001 1.42548 10.6501 1.44548 10.6501 1.42048C10.6501 1.39548 10.6301 1.40048 10.6101 1.43048C10.5601 1.51048 9.60013 2.01548 9.60013 1.96548C9.60013 1.94548 9.56513 1.96548 9.52513 2.02048C9.49013 2.07048 9.43513 2.09548 9.41013 2.08048C9.38013 2.06548 9.34513 2.08548 9.33013 2.13048C9.31013 2.17548 9.28513 2.20048 9.26513 2.18048C9.25013 2.16548 9.19013 2.18548 9.14013 2.23548C9.09013 2.28048 9.05013 2.29548 9.05013 2.27548C9.05013 2.25548 9.00513 2.27548 8.95013 2.32548C8.89513 2.37548 8.85013 2.39548 8.85013 2.37548C8.85013 2.35048 8.81513 2.37548 8.77013 2.43048C8.73013 2.48048 8.71013 2.49048 8.73013 2.45048C8.75513 2.40048 8.73013 2.40548 8.66013 2.47048C8.60013 2.52548 8.55013 2.55048 8.55013 2.53048C8.55013 2.51048 8.50013 2.54048 8.44013 2.60048C8.38013 2.65548 8.30013 2.70048 8.26013 2.70048C8.22513 2.70048 8.16013 2.73548 8.11513 2.77548C8.07513 2.81548 8.02013 2.84048 7.99513 2.82548C7.97013 2.80548 7.95013 2.81548 7.95013 2.84048C7.95013 2.86548 7.91013 2.90048 7.86513 2.92048C7.81513 2.93548 7.69013 3.00548 7.58013 3.07048C7.40513 3.18048 7.39513 3.19048 7.49513 3.22548C7.55013 3.24048 7.60013 3.28048 7.60013 3.30548C7.60013 3.33048 7.61513 3.34548 7.64013 3.34048C7.70013 3.32548 7.95013 3.46548 7.95013 3.51048C7.95013 3.53548 7.97013 3.54548 7.99513 3.52548C8.02013 3.51048 8.07013 3.52548 8.11013 3.56048C8.14513 3.59548 8.21013 3.63048 8.25013 3.64048C8.29013 3.65048 8.33513 3.68048 8.34013 3.70548C8.35013 3.73048 8.38013 3.74048 8.40513 3.72048C8.43013 3.70548 8.45013 3.72048 8.45013 3.75548C8.45013 3.79048 8.46513 3.80048 8.48513 3.78548C8.50013 3.76548 8.56013 3.79048 8.61513 3.83548C8.66513 3.88548 8.71513 3.91548 8.72013 3.90548C8.73013 3.87548 9.22013 4.10548 9.31513 4.19048C9.36013 4.23048 9.40013 4.24548 9.40013 4.22548C9.40013 4.20548 9.44513 4.22548 9.50013 4.27548C9.55513 4.32548 9.60013 4.34548 9.60013 4.32548C9.60013 4.30548 9.64513 4.32548 9.70513 4.38048C9.76513 4.43048 9.82013 4.47048 9.83013 4.46048C9.87013 4.43548 10.3501 4.66548 10.3501 4.71048C10.3501 4.73548 10.3701 4.74548 10.3901 4.73048C10.4151 4.71548 10.5001 4.74548 10.5801 4.79548C10.7201 4.88048 10.7301 4.88048 11.0851 4.71548C11.2801 4.62548 11.4651 4.55048 11.4901 4.55048C11.5151 4.55048 11.5651 4.51548 11.6001 4.47548C11.6351 4.43548 11.6801 4.41048 11.7001 4.42548C11.7201 4.44048 11.7651 4.41548 11.8001 4.37548C11.8351 4.33548 11.8801 4.31548 11.9051 4.33048C11.9301 4.34548 11.9501 4.33548 11.9501 4.31048C11.9501 4.26048 12.2751 4.10048 12.4501 4.06548C12.5251 4.05548 12.5951 4.07548 12.6301 4.12548C12.6651 4.17048 12.7001 4.20048 12.7101 4.19048C12.7451 4.16048 13.1501 4.36548 13.1501 4.41048C13.1501 4.43548 13.1701 4.44548 13.1951 4.42548C13.2201 4.41048 13.2751 4.43048 13.3151 4.47048C13.3551 4.51048 13.4001 4.53548 13.4101 4.52048C13.4251 4.51048 13.4651 4.53048 13.5001 4.57548C13.5351 4.61548 13.6001 4.65048 13.6501 4.65048C13.7001 4.65048 13.7651 4.68548 13.8001 4.72548C13.8351 4.77048 13.8751 4.79048 13.8851 4.78048C13.9001 4.76548 13.9851 4.80048 14.0751 4.85048C14.1951 4.91548 14.2551 4.92548 14.2951 4.88548C14.3251 4.85548 14.3501 4.85048 14.3501 4.87548C14.3501 4.89548 14.3901 4.88048 14.4401 4.84048C14.4851 4.80048 14.6151 4.73048 14.7251 4.68548C14.8351 4.64548 15.0151 4.57048 15.1251 4.52048C15.2351 4.47048 15.3351 4.43048 15.3501 4.42548C15.3651 4.42548 15.5151 4.35048 15.6851 4.26048C15.8601 4.17048 16.0151 4.09548 16.0351 4.09548C16.0601 4.09048 16.1301 4.06548 16.2001 4.03548C16.2701 4.00548 16.3351 3.98048 16.3501 3.97548C16.3651 3.97048 16.5101 3.90048 16.6751 3.82048C16.8401 3.74548 16.9851 3.67548 17.0001 3.67048C17.0151 3.67048 17.0801 3.64548 17.1501 3.61548C17.2201 3.58548 17.2901 3.56548 17.3051 3.57048C17.3251 3.57048 17.3851 3.53548 17.4351 3.48548C17.4901 3.44048 17.5451 3.41048 17.5601 3.42548C17.5751 3.44048 17.6251 3.40048 17.6801 3.34048C17.7301 3.28048 17.7501 3.25048 17.7151 3.26548C17.6851 3.28548 17.6351 3.26548 17.6051 3.21548C17.5751 3.16548 17.5501 3.14548 17.5501 3.17048C17.5501 3.19548 17.5101 3.18048 17.4651 3.13548C17.3751 3.06048 17.3551 3.05048 17.2451 3.05048C17.2201 3.05048 17.2051 3.03048 17.2201 3.01048C17.2301 2.99048 17.2051 2.97048 17.1551 2.96548C17.1051 2.96048 16.9551 2.89548 16.8201 2.81548C16.6851 2.74048 16.4251 2.59548 16.2401 2.50548C16.0501 2.41048 15.9001 2.31048 15.9001 2.29048C15.9001 2.26548 15.8801 2.25548 15.8551 2.27548C15.8301 2.29048 15.7751 2.26548 15.7301 2.22548C15.6901 2.18048 15.6351 2.14548 15.6151 2.14048C15.5151 2.13048 15.3501 2.03048 15.3501 1.98548C15.3501 1.95548 15.3351 1.95048 15.3151 1.96548C15.3001 1.98548 15.2401 1.96048 15.1851 1.91548C15.1101 1.85048 15.0901 1.84548 15.1201 1.90048C15.1451 1.94548 15.1301 1.94048 15.0851 1.89048C15.0451 1.84048 15.0001 1.82048 14.9801 1.84048C14.9601 1.86048 14.9101 1.83048 14.8701 1.78048C14.8301 1.72548 14.8001 1.70048 14.8001 1.72548C14.8001 1.74548 14.7551 1.72548 14.6951 1.67048C14.6351 1.62048 14.5801 1.58048 14.5701 1.58548C14.5301 1.61048 14.3701 1.53048 14.3151 1.45548C14.2801 1.41048 14.2501 1.39548 14.2501 1.41548C14.2501 1.46548 12.9901 0.805476 12.9401 0.730476C12.9201 0.700476 12.9001 0.690476 12.9001 0.715476C12.9001 0.750476 12.6551 0.615476 12.6001 0.545476C12.5851 0.530476 12.5401 0.525476 12.5001 0.535476ZM5.01013 4.42548C4.92513 4.46548 4.85013 4.48048 4.85013 4.46548C4.85013 4.45048 4.80513 4.47548 4.75013 4.52548C4.69513 4.57548 4.65013 4.60048 4.65013 4.57548C4.65013 4.55548 4.61513 4.56548 4.57513 4.60048C4.53513 4.63548 4.50013 4.64548 4.50013 4.62048C4.50013 4.59548 4.46513 4.61548 4.42513 4.67048C4.39013 4.72048 4.33513 4.74548 4.31013 4.73048C4.28513 4.71548 4.23513 4.73548 4.20013 4.77048C4.17013 4.81048 4.10013 4.83548 4.05013 4.82548C3.99513 4.81548 3.95513 4.83048 3.96513 4.86548C3.97013 4.90048 3.94513 4.92048 3.91513 4.91048C3.88013 4.90548 3.85013 4.92048 3.85013 4.94048C3.85013 4.98048 3.69513 5.07048 3.57513 5.10048C3.55013 5.10548 3.47013 5.15048 3.40013 5.19548C3.24513 5.30048 2.91013 5.46048 2.88013 5.44048C2.87013 5.43048 2.81513 5.46548 2.76513 5.51548C2.71013 5.56048 2.65013 5.58548 2.63513 5.56548C2.61513 5.55048 2.60013 5.56048 2.60013 5.59548C2.60013 5.63048 2.58013 5.64548 2.55513 5.63048C2.53013 5.61048 2.50013 5.62048 2.49013 5.64548C2.48513 5.67048 2.44013 5.70048 2.40013 5.71048C2.36013 5.72048 2.29513 5.75548 2.26013 5.79048C2.22013 5.82548 2.17013 5.84048 2.14513 5.82548C2.12513 5.81048 2.09013 5.85048 2.07513 5.91548C2.03013 6.08548 2.06513 12.3855 2.11013 12.4305C2.13013 12.4505 2.18013 12.4355 2.22513 12.4005C2.26513 12.3655 2.30013 12.3505 2.30013 12.3705C2.30013 12.3905 2.35013 12.3705 2.41513 12.3305C2.47513 12.2905 2.57013 12.2505 2.62513 12.2405C2.68013 12.2305 2.74013 12.2055 2.75513 12.1855C2.77013 12.1605 2.82013 12.1405 2.86013 12.1305C2.90513 12.1255 2.97513 12.0905 3.02013 12.0555C3.06513 12.0205 3.10013 12.0005 3.10013 12.0205C3.10013 12.0405 3.15513 12.0155 3.22513 11.9705C3.29513 11.9255 3.35013 11.9055 3.35013 11.9255C3.35013 11.9505 3.39513 11.9255 3.45513 11.8705C3.51513 11.8205 3.56513 11.7805 3.57013 11.7905C3.57013 11.8005 3.68513 11.7555 3.82013 11.6955C3.95513 11.6405 4.09013 11.5855 4.12013 11.5805C4.15013 11.5755 4.21013 11.5505 4.25013 11.5255C4.43013 11.4055 4.56513 11.3555 4.60513 11.3805C4.63013 11.3955 4.65013 11.3855 4.65013 11.3605C4.65013 11.3405 4.76513 11.2705 4.90013 11.2105L5.15013 11.1005L5.15513 9.34048C5.16013 8.37048 5.16013 7.56048 5.15513 7.54048C5.15013 7.48048 5.37513 7.53548 5.59013 7.65048C5.70513 7.71048 5.80013 7.78548 5.80013 7.81548C5.80013 7.84548 5.81513 7.85548 5.83013 7.83548C5.84513 7.82048 5.98513 7.87548 6.14513 7.96048C6.30013 8.04048 6.54013 8.17048 6.67513 8.24048C6.81513 8.31548 6.93513 8.38548 6.95013 8.40048C6.96513 8.42048 7.05013 8.46048 7.14013 8.49548C7.22513 8.53548 7.30013 8.58548 7.30013 8.61548C7.30013 8.64548 7.31013 8.65548 7.32513 8.64048C7.36013 8.60548 8.46013 9.19048 8.51013 9.27048C8.53013 9.30048 8.55013 9.31048 8.55013 9.29048C8.55013 9.27048 8.62013 9.29548 8.70513 9.34548C8.81013 9.41048 8.89013 9.43048 8.94513 9.40048C9.03513 9.35048 9.15513 9.31548 9.22013 9.31048C9.24513 9.31048 9.28013 9.29048 9.29513 9.26548C9.36013 9.18048 10.0201 8.89548 10.1051 8.91548C10.1551 8.93048 10.1901 8.92548 10.1851 8.90548C10.1801 8.89048 10.1951 8.87048 10.2201 8.86548C10.2451 8.86048 10.2801 8.83548 10.3001 8.80048C10.3201 8.77048 10.3701 8.74048 10.4101 8.73048C10.4551 8.72548 10.5251 8.69048 10.5651 8.66048C10.6101 8.62548 10.6851 8.59048 10.7451 8.58548C10.8001 8.58548 10.8351 8.56548 10.8201 8.54548C10.8101 8.52548 10.8701 8.49048 10.9601 8.47548C11.0501 8.45548 11.1551 8.41548 11.1901 8.39048C11.2201 8.36048 11.2501 8.35548 11.2501 8.37548C11.2501 8.40048 11.2901 8.38548 11.3401 8.34548C11.4751 8.23548 11.6401 8.15048 11.7251 8.15048C11.7651 8.15048 11.8001 8.12548 11.8001 8.09548C11.8001 8.06548 11.8301 8.05048 11.8601 8.06048C11.8951 8.07548 11.9551 8.05548 11.9901 8.01548C12.0301 7.98048 12.0801 7.96548 12.1101 7.98048C12.1451 8.00048 12.1501 7.99048 12.1301 7.95548C12.1101 7.92548 12.0751 7.91048 12.0501 7.92548C12.0251 7.94048 11.9601 7.91048 11.9001 7.85048C11.8451 7.79548 11.8001 7.76548 11.8001 7.78548C11.8001 7.80048 11.7551 7.77548 11.7001 7.72548C11.6451 7.67548 11.6001 7.65548 11.6001 7.68048C11.6001 7.70548 11.5651 7.68048 11.5251 7.63048C11.4851 7.57548 11.4501 7.55048 11.4501 7.57048C11.4501 7.59548 11.4151 7.58048 11.3701 7.54548C11.3251 7.51048 11.2551 7.47548 11.2151 7.47048C11.1751 7.46048 11.0801 7.40548 11.0101 7.34048C10.9401 7.27548 10.9001 7.25548 10.9201 7.29048C10.9551 7.34548 10.9401 7.34548 10.8451 7.29048C10.7801 7.25548 10.7001 7.19048 10.6651 7.15048C10.6301 7.11048 10.6001 7.09548 10.6001 7.12048C10.6001 7.14548 10.5601 7.13048 10.5101 7.08548C10.4651 7.04548 10.4151 7.00548 10.4001 7.00548C10.3151 7.00548 10.1001 6.89548 10.1001 6.85048C10.1001 6.82048 10.0801 6.80548 10.0551 6.82048C10.0101 6.85048 9.44513 6.56548 9.39013 6.48048C9.37013 6.45048 9.35013 6.44548 9.35013 6.47048C9.35013 6.49548 9.30513 6.47548 9.24513 6.42048C9.18513 6.37048 9.12513 6.33048 9.10513 6.33548C9.05013 6.36048 8.90013 6.29548 8.90013 6.24548C8.90013 6.22048 8.88513 6.20548 8.86513 6.21048C8.80513 6.23048 8.15013 5.89048 8.15013 5.84048C8.15013 5.81548 8.13013 5.80548 8.10513 5.82548C8.08013 5.84048 8.02013 5.81548 7.98013 5.77048C7.93513 5.73048 7.90013 5.71048 7.90013 5.73048C7.90013 5.75048 7.85013 5.72548 7.79013 5.67048C7.73013 5.62048 7.70013 5.60548 7.72013 5.64048C7.75513 5.69548 7.74013 5.69548 7.64513 5.64048C7.58013 5.60548 7.51013 5.55048 7.49013 5.52548C7.47013 5.49548 7.43513 5.47548 7.41513 5.47548C7.39513 5.47048 7.22013 5.39548 7.02513 5.30048C6.83513 5.20548 6.66513 5.12548 6.65013 5.12548C6.52513 5.09548 6.35013 4.99048 6.35013 4.95048C6.35013 4.92548 6.33513 4.90548 6.31513 4.91048C6.25013 4.93048 5.95013 4.79048 5.95013 4.74048C5.95013 4.71548 5.93013 4.70548 5.90513 4.72548C5.88013 4.74048 5.82013 4.71548 5.78013 4.67048C5.73513 4.63048 5.70013 4.61048 5.70013 4.63048C5.70013 4.64548 5.67013 4.64048 5.64013 4.61048C5.60513 4.58048 5.55513 4.55548 5.52513 4.55048C5.41013 4.52548 5.22513 4.44048 5.20013 4.40048C5.18513 4.38048 5.10013 4.39048 5.01013 4.42548ZM20.0251 4.60048C19.8701 4.66548 19.7301 4.71548 19.6901 4.72048C19.6701 4.72548 19.6251 4.75548 19.5951 4.78548C19.5601 4.82048 19.4901 4.85048 19.4451 4.85048C19.3951 4.85048 19.3401 4.87548 19.3251 4.90048C19.3051 4.93048 19.2701 4.94048 19.2451 4.92548C19.2201 4.90548 19.2001 4.91548 19.2001 4.93548C19.2001 4.98048 18.8551 5.13048 18.7901 5.11048C18.7651 5.10548 18.7501 5.12048 18.7501 5.14548C18.7501 5.18548 18.5201 5.26548 18.4801 5.24048C18.4701 5.23048 18.4151 5.27048 18.3551 5.32048C18.2951 5.37548 18.2501 5.40048 18.2501 5.38048C18.2501 5.36548 18.1601 5.40548 18.0501 5.47548C17.9401 5.54548 17.8351 5.60048 17.8151 5.60048C17.7901 5.60048 17.6651 5.65548 17.5301 5.72048C17.3901 5.79048 17.2251 5.83048 17.1551 5.82048C17.0651 5.80548 17.0451 5.81048 17.0951 5.84548C17.1401 5.87548 17.1451 5.90048 17.1051 5.92048C17.0751 5.94048 17.0501 5.94048 17.0501 5.92548C17.0501 5.90548 17.0151 5.93048 16.9701 5.97048C16.9301 6.01548 16.8601 6.05048 16.8251 6.05048C16.7851 6.05048 16.7451 6.07048 16.7301 6.09548C16.6901 6.15548 16.7501 6.30548 16.8001 6.27548C16.8201 6.26048 16.8951 6.29548 16.9601 6.35048C17.0301 6.40548 17.1051 6.43048 17.1251 6.41048C17.1501 6.39048 17.1501 6.41548 17.1351 6.46048C17.1151 6.52048 17.1301 6.54048 17.2001 6.52548C17.2551 6.51548 17.3201 6.54548 17.3501 6.59048C17.3751 6.63548 17.4001 6.65548 17.4001 6.63548C17.4001 6.58548 17.9551 6.89548 18.0101 6.97048C18.0301 7.00048 18.0501 7.00548 18.0501 6.98548C18.0501 6.96048 18.1101 6.98548 18.1901 7.04048C18.2651 7.09048 18.3651 7.15048 18.4151 7.16548C18.4601 7.18548 18.5001 7.22048 18.5001 7.25048C18.5001 7.28048 18.5201 7.29548 18.5501 7.27548C18.5751 7.26048 18.6401 7.29048 18.7001 7.35048C18.7551 7.40548 18.8001 7.43548 18.8001 7.42048C18.8001 7.40048 18.8351 7.41548 18.8751 7.45048C19.0051 7.55548 18.9651 7.73548 18.8001 7.82048C18.7051 7.86548 18.6601 7.87048 18.6851 7.83548C18.7001 7.80048 18.6701 7.81548 18.6151 7.86548C18.5601 7.91048 18.5001 7.93548 18.4851 7.91548C18.4651 7.90048 18.4501 7.90548 18.4501 7.93548C18.4501 7.98048 18.2451 8.08548 18.1001 8.12048C18.0851 8.12548 18.0401 8.15048 18.0001 8.17548C17.8601 8.26548 17.4501 8.44548 17.4501 8.41548C17.4501 8.40048 17.4151 8.41548 17.3751 8.45048C17.3351 8.48548 17.3001 8.49548 17.3001 8.47548C17.3001 8.45048 17.2601 8.47048 17.2101 8.51548C17.1601 8.56548 17.1051 8.59048 17.0901 8.57548C17.0751 8.56048 17.0351 8.58048 17.0001 8.62548C16.9651 8.66548 16.9201 8.70048 16.9001 8.70048C16.8801 8.70048 16.7751 8.74048 16.6701 8.78548C16.5601 8.83048 16.4651 8.87048 16.4501 8.87548C16.4351 8.87548 16.3951 8.89548 16.3651 8.91548C16.3301 8.94048 16.3001 8.94048 16.3001 8.92048C16.3001 8.90048 16.2551 8.92548 16.1951 8.98048C16.1351 9.03048 16.0801 9.07048 16.0701 9.06048C16.0601 9.05548 15.9151 9.11548 15.7501 9.20048C15.5851 9.28548 15.4501 9.34048 15.4501 9.33048C15.4501 9.31548 15.3251 9.37048 15.1701 9.45548C15.0151 9.53548 14.8701 9.59048 14.8501 9.57548C14.8251 9.56048 14.8001 9.57548 14.7901 9.60048C14.7801 9.63048 14.7351 9.66048 14.6901 9.66548C14.6451 9.67548 14.5751 9.71048 14.5301 9.74548C14.4851 9.78048 14.4501 9.79548 14.4501 9.77548C14.4501 9.75048 14.4101 9.77048 14.3651 9.81048C14.2651 9.89548 13.8501 10.0655 13.8501 10.0205C13.8501 10.0055 13.8151 10.0305 13.7701 10.0705C13.7301 10.1155 13.6751 10.1405 13.6501 10.1255C13.6301 10.1105 13.5851 10.1355 13.5501 10.1755C13.5151 10.2155 13.4701 10.2405 13.4501 10.2255C13.4301 10.2105 13.3851 10.2355 13.3501 10.2755C13.3151 10.3155 13.2701 10.3505 13.2501 10.3505C13.2301 10.3505 13.1301 10.3855 13.0301 10.4255C12.9301 10.4655 12.8451 10.4955 12.8351 10.4905C12.8251 10.4805 12.7801 10.5055 12.7351 10.5455C12.6851 10.5805 12.6501 10.5955 12.6501 10.5705C12.6501 10.5455 12.6301 10.5505 12.6101 10.5805C12.5651 10.6455 11.8151 11.0005 11.7851 10.9705C11.7751 10.9555 11.7351 10.9805 11.7001 11.0255C11.6651 11.0655 11.6101 11.1005 11.5801 11.1005C11.5501 11.1005 11.4601 11.1355 11.3801 11.1755C11.3051 11.2155 11.2201 11.2405 11.2001 11.2255C11.1751 11.2105 11.1501 11.2205 11.1401 11.2455C11.1351 11.2705 11.0901 11.3005 11.0501 11.3105C11.0101 11.3205 10.9601 11.3455 10.9451 11.3655C10.9301 11.3905 10.8801 11.4105 10.8401 11.4205C10.7951 11.4255 10.7301 11.4555 10.6951 11.4805C10.6001 11.5505 10.2001 11.7055 10.2001 11.6705C10.2001 11.6555 10.1651 11.6805 10.1201 11.7205C10.0801 11.7655 10.0251 11.7905 10.0001 11.7755C9.98013 11.7605 9.93513 11.7855 9.90013 11.8255C9.86513 11.8655 9.82013 11.8905 9.80013 11.8755C9.78013 11.8605 9.73513 11.8855 9.70013 11.9255C9.66513 11.9655 9.61513 12.0005 9.59013 12.0005C9.56513 12.0005 9.45513 12.0455 9.34513 12.0955C9.24013 12.1505 9.16513 12.1655 9.18513 12.1355C9.20013 12.1005 9.17013 12.1205 9.11013 12.1705C9.05013 12.2255 9.00013 12.2455 9.00013 12.2205C9.00013 12.1955 8.98013 12.2005 8.96013 12.2305C8.92013 12.2905 8.15013 12.6605 8.15013 12.6155C8.15013 12.6005 8.12013 12.6155 8.08513 12.6455C8.04513 12.6755 8.00013 12.6855 7.98513 12.6655C7.96513 12.6505 7.95013 12.6555 7.95013 12.6855C7.95013 12.7355 7.69513 12.8605 7.57513 12.8705C7.55013 12.8755 7.51013 12.8955 7.49513 12.9155C7.48013 12.9405 7.43013 12.9605 7.39013 12.9705C7.34513 12.9755 7.27513 13.0105 7.23013 13.0455C7.18513 13.0805 7.15013 13.0955 7.15013 13.0755C7.15013 13.0505 7.10513 13.0755 7.04513 13.1305C6.98513 13.1805 6.93013 13.2205 6.92013 13.2105C6.91013 13.2055 6.83013 13.2355 6.75013 13.2755C6.66513 13.3205 6.57513 13.3405 6.55513 13.3255C6.53013 13.3105 6.50013 13.3255 6.49013 13.3505C6.48013 13.3805 6.43513 13.4105 6.39013 13.4155C6.34513 13.4255 6.28013 13.4505 6.24513 13.4805C6.14013 13.5605 5.44013 13.8655 5.36513 13.8655C5.33013 13.8655 5.30013 13.8855 5.30013 13.9055C5.30013 13.9355 5.10513 14.0255 4.95013 14.0705C4.93513 14.0755 4.83013 14.1305 4.71513 14.1905C4.59513 14.2505 4.50013 14.2905 4.50013 14.2705C4.50013 14.2505 4.47013 14.2655 4.43513 14.2955C4.39513 14.3255 4.35013 14.3355 4.33513 14.3155C4.31513 14.3005 4.30013 14.3055 4.30013 14.3355C4.30013 14.3805 4.11513 14.4755 3.95013 14.5205C3.93513 14.5255 3.87513 14.5555 3.82013 14.5905C3.76013 14.6205 3.70013 14.6305 3.68013 14.6155C3.66513 14.6005 3.65013 14.6055 3.65013 14.6355C3.65013 14.6805 3.47513 14.7705 3.30013 14.8205C3.28513 14.8255 3.12013 14.9055 2.92513 14.9955C2.41513 15.2355 2.30513 15.2805 2.20013 15.2955C2.17513 15.2955 2.15013 15.3705 2.15013 15.4555C2.15013 15.5355 2.13513 15.5955 2.11513 15.5855C2.09013 15.5705 2.07013 16.4005 2.06013 17.4305C2.05013 18.4605 2.06013 19.2955 2.08513 19.2905C2.15013 19.2705 2.55013 19.4605 2.55013 19.5105C2.55013 19.5355 2.57013 19.5455 2.59513 19.5305C2.61513 19.5155 2.74013 19.5705 2.87013 19.6505C2.99513 19.7305 3.10013 19.7855 3.10013 19.7655C3.10013 19.7505 3.14513 19.7755 3.20013 19.8255C3.25513 19.8755 3.30013 19.9005 3.30013 19.8855C3.30013 19.8405 3.97013 20.2005 4.01013 20.2705C4.03013 20.3005 4.05013 20.3055 4.05013 20.2805C4.05013 20.2555 4.08513 20.2655 4.12513 20.3005C4.16513 20.3355 4.20013 20.3455 4.20013 20.3255C4.20013 20.3005 4.24513 20.3255 4.30013 20.3755C4.35513 20.4255 4.40013 20.4505 4.40013 20.4305C4.40013 20.4155 4.45513 20.4355 4.52013 20.4755C4.61513 20.5405 4.66013 20.5405 4.78013 20.4955C4.86013 20.4605 4.93513 20.4305 4.95013 20.4255C4.96513 20.4255 5.05013 20.3805 5.13513 20.3355C5.22513 20.2855 5.30513 20.2505 5.31013 20.2505C5.32013 20.2555 5.46013 20.1955 5.62513 20.1155C5.79013 20.0405 5.93513 19.9755 5.95013 19.9755C5.96513 19.9705 6.05013 19.9305 6.13513 19.8855C6.22513 19.8355 6.31013 19.8005 6.32513 19.8005C6.34013 19.8005 6.48513 19.7355 6.65013 19.6555C6.81513 19.5755 6.95013 19.5205 6.95013 19.5355C6.95013 19.5555 6.99013 19.5305 7.04013 19.4905C7.13013 19.4105 7.42513 19.2855 7.48013 19.3005C7.50013 19.3055 7.53013 19.2905 7.54513 19.2655C7.56013 19.2455 7.72013 19.1505 7.90013 19.0655C8.08013 18.9755 8.18513 18.9005 8.14013 18.9005C8.09013 18.9005 8.05013 18.8755 8.05013 18.8405C8.05013 18.8105 8.03513 18.8005 8.01513 18.8155C7.98513 18.8505 7.45013 18.5655 7.39513 18.4855C7.38013 18.4605 7.34513 18.4405 7.32013 18.4405C7.22513 18.4405 6.90013 18.2455 6.90013 18.1905C6.90013 18.1605 6.88513 18.1455 6.87013 18.1655C6.82513 18.2055 6.45013 18.0105 6.45013 17.9455C6.45013 17.9155 6.43013 17.9055 6.40513 17.9205C6.38013 17.9355 6.33513 17.9155 6.30013 17.8755C6.26513 17.8355 6.22013 17.8105 6.20013 17.8255C6.18013 17.8405 6.13513 17.8155 6.10013 17.7755C6.06513 17.7355 6.02013 17.7105 6.00013 17.7255C5.95013 17.7555 5.90013 17.6905 5.87513 17.5605C5.86513 17.4955 5.95013 17.4255 6.21513 17.2905C6.71513 17.0355 7.06513 16.8805 7.12513 16.8755C7.15513 16.8755 7.20513 16.8455 7.24013 16.8105C7.28013 16.7755 7.33013 16.7605 7.35513 16.7755C7.38013 16.7955 7.40013 16.7855 7.40013 16.7605C7.40013 16.6955 7.68013 16.5955 7.73013 16.6405C7.75013 16.6605 7.75013 16.6505 7.73513 16.6205C7.70513 16.5705 8.07013 16.4205 8.16513 16.4405C8.18513 16.4455 8.20013 16.4305 8.20013 16.4105C8.20013 16.3655 8.62513 16.1755 8.76513 16.1605C8.78513 16.1555 8.84013 16.1205 8.88013 16.0755C8.95013 16.0105 9.06513 15.9755 9.12013 16.0105C9.13013 16.0205 9.18013 15.9905 9.23013 15.9505C9.36013 15.8405 9.73513 15.6755 9.81513 15.6905C9.83513 15.6955 9.85013 15.6805 9.85013 15.6555C9.85013 15.6105 10.0901 15.5255 10.1651 15.5405C10.1851 15.5455 10.2001 15.5255 10.2001 15.4955C10.2001 15.4705 10.2201 15.4605 10.2501 15.4755C10.2801 15.4905 10.3001 15.4855 10.3001 15.4605C10.3001 15.4155 10.4551 15.3455 10.5801 15.3305C10.6101 15.3255 10.6751 15.2955 10.7201 15.2555C10.7651 15.2205 10.8001 15.2005 10.8001 15.2205C10.8001 15.2355 10.8901 15.1955 10.9951 15.1305C11.1051 15.0605 11.2401 15.0155 11.2951 15.0255C11.3551 15.0355 11.3951 15.0205 11.3851 14.9855C11.3801 14.9505 11.4051 14.9305 11.4401 14.9405C11.4701 14.9455 11.5001 14.9255 11.5001 14.8955C11.5001 14.8655 11.5301 14.8505 11.5701 14.8655C11.6051 14.8805 11.6651 14.8655 11.6951 14.8355C11.7301 14.8005 11.7701 14.7755 11.7901 14.7755C11.8101 14.7705 11.9151 14.7255 12.0251 14.6655C12.1351 14.6105 12.2651 14.5705 12.3101 14.5755C12.3601 14.5855 12.3901 14.5655 12.3851 14.5355C12.3801 14.5055 12.4001 14.4755 12.4251 14.4755C12.4901 14.4655 12.7201 14.3655 13.0151 14.2155C13.1451 14.1505 13.2501 14.1105 13.2501 14.1305C13.2501 14.1505 13.2901 14.1305 13.3401 14.0855C13.3851 14.0455 13.4401 14.0055 13.4651 14.0055C13.4851 14.0055 13.5651 13.9705 13.6451 13.9305C13.7251 13.8855 13.8001 13.8705 13.8201 13.8855C13.8351 13.9055 13.8501 13.8905 13.8501 13.8605C13.8501 13.8255 13.8651 13.8055 13.8901 13.8105C13.9101 13.8155 14.0001 13.7805 14.0901 13.7355C14.1751 13.6855 14.2501 13.6655 14.2501 13.6805C14.2501 13.7005 14.2901 13.6805 14.3401 13.6355C14.3851 13.5955 14.4351 13.5605 14.4501 13.5605C14.4651 13.5655 14.5651 13.5205 14.6751 13.4655C14.7851 13.4105 14.9151 13.3705 14.9651 13.3755C15.0101 13.3855 15.0401 13.3755 15.0251 13.3505C15.0051 13.3205 15.0901 13.2805 15.2501 13.2505C15.2651 13.2455 15.3151 13.2055 15.3701 13.1605C15.4201 13.1155 15.4751 13.0755 15.4951 13.0805C15.5101 13.0805 15.5951 13.0555 15.6751 13.0205C15.7601 12.9855 15.8401 12.9655 15.8551 12.9655C15.8751 12.9705 15.9351 12.9305 15.9951 12.8805C16.0551 12.8255 16.1001 12.8005 16.1001 12.8255C16.1001 12.8455 16.1351 12.8355 16.1751 12.8005C16.2151 12.7655 16.2501 12.7555 16.2501 12.7755C16.2501 12.8005 16.2951 12.7755 16.3551 12.7205C16.4151 12.6705 16.4651 12.6355 16.4701 12.6455C16.4701 12.6555 16.5701 12.6155 16.6901 12.5555C16.8051 12.4955 16.9001 12.4655 16.9001 12.4805C16.9001 12.5005 16.9451 12.4755 17.0051 12.4205C17.0651 12.3705 17.1201 12.3305 17.1301 12.3405C17.1401 12.3455 17.2201 12.3155 17.3001 12.2755C17.3851 12.2305 17.4501 12.2105 17.4501 12.2255C17.4501 12.2405 17.5401 12.1955 17.6551 12.1205C17.7651 12.0505 17.8701 12.0055 17.8901 12.0205C17.9051 12.0355 17.9501 12.0205 17.9951 11.9805C18.0401 11.9405 18.0901 11.9055 18.1151 11.9055C18.1351 11.9055 18.2151 11.8705 18.2951 11.8305C18.3751 11.7855 18.4501 11.7705 18.4701 11.7855C18.4851 11.8055 18.5001 11.7855 18.5001 11.7505C18.5001 11.7155 18.5151 11.7005 18.5301 11.7155C18.5501 11.7355 18.6301 11.7005 18.7101 11.6455C18.7901 11.5855 18.8701 11.5555 18.8851 11.5705C18.9051 11.5855 18.9601 11.5605 19.0151 11.5155C19.0651 11.4655 19.1151 11.4355 19.1201 11.4455C19.1201 11.4555 19.2201 11.4155 19.3401 11.3555C19.4551 11.2955 19.5501 11.2655 19.5501 11.2805C19.5501 11.3005 19.5951 11.2755 19.6501 11.2255C19.7051 11.1755 19.7501 11.1505 19.7501 11.1755C19.7501 11.1955 19.7851 11.1855 19.8251 11.1505C19.8651 11.1155 19.9001 11.1055 19.9001 11.1255C19.9001 11.1505 19.9401 11.1305 19.9901 11.0855C20.0351 11.0455 20.1001 11.0005 20.1251 10.9955C20.1551 10.9905 20.3001 10.9255 20.4501 10.8555C20.6001 10.7855 20.7351 10.7255 20.7501 10.7255C20.7651 10.7205 20.8501 10.6805 20.9351 10.6355C21.0251 10.5855 21.1151 10.5455 21.1351 10.5455C21.1601 10.5405 21.3051 10.4755 21.4651 10.4005C21.6201 10.3205 21.7501 10.2705 21.7501 10.2855C21.7501 10.3055 21.7901 10.2805 21.8401 10.2405C21.9401 10.1555 22.7101 9.82048 22.7651 9.84048C22.7851 9.84548 22.8051 9.70048 22.8101 9.51048L22.8151 9.17548L22.8501 9.50048C22.8651 9.68048 22.8701 8.94548 22.8601 7.87548C22.8451 5.99548 22.8301 5.75048 22.7701 5.81548C22.7351 5.85048 21.7851 5.35548 21.7601 5.29048C21.7501 5.27048 21.7251 5.26048 21.7001 5.27548C21.6751 5.29048 21.6301 5.27548 21.5901 5.24048C21.5551 5.20548 21.4801 5.17048 21.4251 5.16048C21.3701 5.15048 21.3001 5.11048 21.2701 5.07048C21.2401 5.03048 21.1751 5.00048 21.1301 5.00048C21.0851 5.00048 21.0501 4.97548 21.0501 4.94048C21.0501 4.91048 21.0351 4.89548 21.0201 4.91548C20.9901 4.94548 20.5051 4.72548 20.4501 4.65548C20.4351 4.64048 20.4051 4.62048 20.3751 4.62048C20.3501 4.61548 20.2801 4.60048 20.2251 4.58548C20.1701 4.57048 20.0801 4.57548 20.0251 4.60048ZM22.8601 12.5305C22.8501 12.5855 22.6551 12.6605 22.5701 12.6455C22.5501 12.6455 22.5201 12.6655 22.5051 12.6905C22.4901 12.7205 22.4401 12.7505 22.4001 12.7605C22.3601 12.7705 22.2951 12.8055 22.2601 12.8405C22.2201 12.8755 22.1751 12.8905 22.1501 12.8755C22.1251 12.8605 22.0951 12.8705 22.0751 12.9005C22.0451 12.9505 21.6251 13.1555 21.5201 13.1705C21.4851 13.1755 21.4201 13.2105 21.3701 13.2505C21.2901 13.3155 21.2851 13.3155 21.3251 13.2505C21.3501 13.2055 21.3251 13.2105 21.2601 13.2705C21.2001 13.3255 21.1501 13.3455 21.1501 13.3255C21.1501 13.3055 21.1101 13.3205 21.0651 13.3605C20.9701 13.4405 20.7551 13.5255 20.6901 13.5105C20.6651 13.5055 20.6501 13.5205 20.6501 13.5455C20.6501 13.5805 20.4751 13.6705 20.2901 13.7255C20.2651 13.7305 20.2401 13.7455 20.2251 13.7505C20.2101 13.7555 20.1851 13.7655 20.1651 13.7705C20.1401 13.7755 20.0801 13.8105 20.0201 13.8505C19.9201 13.9255 19.9151 13.9805 19.8801 15.5505C19.8601 16.4455 19.8301 17.1805 19.8051 17.1905C19.7851 17.1955 19.7751 17.2705 19.7901 17.3505C19.8101 17.4855 19.8001 17.4955 19.6751 17.4705C19.5101 17.4405 18.9301 17.1555 18.9101 17.0955C18.9001 17.0705 18.8751 17.0605 18.8501 17.0755C18.8251 17.0905 18.7751 17.0655 18.7301 17.0255C18.6901 16.9805 18.6351 16.9455 18.6151 16.9505C18.5251 16.9505 18.4001 16.8905 18.4001 16.8455C18.4001 16.8205 18.3851 16.8055 18.3651 16.8105C18.3151 16.8255 17.7351 16.5455 17.6951 16.4855C17.6801 16.4605 17.6451 16.4405 17.6201 16.4405C17.5301 16.4355 17.3501 16.3355 17.3501 16.2905C17.3501 16.2655 17.3301 16.2555 17.3051 16.2755C17.2801 16.2905 17.2201 16.2605 17.1701 16.2155C17.1201 16.1655 17.0701 16.1305 17.0551 16.1305C17.0051 16.1405 16.8001 16.0355 16.8001 16.0055C16.8001 15.9855 16.7501 15.9655 16.6901 15.9655C16.6251 15.9605 16.5551 15.9255 16.5251 15.8905C16.5001 15.8555 16.4451 15.8205 16.4051 15.8105C16.3651 15.8005 16.2501 15.7555 16.1401 15.7005C16.0351 15.6505 15.9601 15.6255 15.9751 15.6455C15.9951 15.6805 15.5401 15.9255 15.4551 15.9255C15.4401 15.9255 15.3951 15.9455 15.3651 15.9655C15.3301 15.9905 15.3001 15.9905 15.3001 15.9705C15.3001 15.9505 15.2601 15.9705 15.2151 16.0105C15.1201 16.0855 14.7001 16.2905 14.4501 16.3755C14.4351 16.3805 14.3151 16.4355 14.1801 16.4955C14.0451 16.5605 13.9051 16.6155 13.8651 16.6205C13.8301 16.6255 13.7701 16.6605 13.7401 16.6905C13.7051 16.7255 13.6401 16.7505 13.5901 16.7505C13.5401 16.7505 13.5001 16.7755 13.5001 16.8055C13.5001 16.8355 13.4651 16.8505 13.4251 16.8305C13.3851 16.8155 13.3501 16.8255 13.3501 16.8455C13.3501 16.9005 13.0501 17.0105 13.0501 16.9605C13.0501 16.9405 13.0301 16.9605 13.0051 17.0005C12.9701 17.0505 12.9951 17.0955 13.1151 17.1655C13.2051 17.2205 13.2901 17.2855 13.3051 17.3105C13.3201 17.3355 13.3451 17.3555 13.3551 17.3505C13.4101 17.3305 13.6501 17.4555 13.6501 17.5055C13.6501 17.5405 13.6651 17.5505 13.6851 17.5355C13.7001 17.5155 13.7601 17.5355 13.8101 17.5855C13.8601 17.6305 13.9001 17.6505 13.9001 17.6305C13.9001 17.5905 14.4651 17.8955 14.5051 17.9605C14.5201 17.9855 14.5501 18.0055 14.5701 18.0005C14.6301 17.9905 14.9751 18.1705 15.0401 18.2505C15.0801 18.2905 15.0951 18.2955 15.0751 18.2655C15.0601 18.2255 15.1051 18.2355 15.1951 18.2905C15.2801 18.3355 15.3501 18.3955 15.3501 18.4155C15.3501 18.4405 15.3701 18.4455 15.3951 18.4255C15.4201 18.4105 15.4801 18.4355 15.5201 18.4805C15.5651 18.5205 15.6001 18.5405 15.6001 18.5205C15.6001 18.5005 15.6401 18.5205 15.6901 18.5655C15.7401 18.6155 15.8001 18.6355 15.8151 18.6155C15.8351 18.6005 15.8501 18.6155 15.8501 18.6505C15.8501 18.6855 15.8651 18.7005 15.8851 18.6855C15.9001 18.6655 15.9501 18.6805 15.9951 18.7205C16.0401 18.7605 16.0851 18.7905 16.1001 18.7855C16.1451 18.7755 17.0751 19.2655 17.1101 19.3205C17.1301 19.3505 17.1501 19.3555 17.1501 19.3305C17.1501 19.3055 17.1951 19.3255 17.2501 19.3755C17.3051 19.4255 17.3501 19.4455 17.3501 19.4255C17.3501 19.4055 17.3951 19.4255 17.4501 19.4755C17.5051 19.5255 17.5501 19.5455 17.5501 19.5205C17.5501 19.4955 17.5851 19.5155 17.6201 19.5655C17.6601 19.6155 17.7101 19.6605 17.7351 19.6655C17.7551 19.6705 17.7701 19.6905 17.7651 19.7105C17.7601 19.7255 17.7901 19.7355 17.8401 19.7255C17.9301 19.7105 18.8501 20.1755 18.9101 20.2705C18.9301 20.3005 18.9501 20.3055 18.9501 20.2805C18.9501 20.2555 19.0001 20.2755 19.0601 20.3305C19.1201 20.3805 19.1501 20.3955 19.1251 20.3555C19.0851 20.2805 19.3501 20.4405 19.4101 20.5255C19.4301 20.5505 19.4501 20.5555 19.4501 20.5305C19.4501 20.5055 19.4951 20.5255 19.5501 20.5755C19.6051 20.6255 19.6501 20.6505 19.6501 20.6305C19.6501 20.6155 19.7051 20.6355 19.7701 20.6755C19.8351 20.7205 19.9001 20.7355 19.9101 20.7155C19.9351 20.6455 20.3851 20.4005 20.4201 20.4355C20.4351 20.4505 20.4501 20.4455 20.4501 20.4155C20.4501 20.3655 20.8251 20.1855 20.8701 20.2155C20.8801 20.2205 20.9351 20.1805 20.9951 20.1305C21.0551 20.0755 21.1001 20.0555 21.1001 20.0755C21.1001 20.1005 21.1301 20.0805 21.1651 20.0255C21.2051 19.9755 21.2601 19.9505 21.2851 19.9655C21.3151 19.9855 21.3551 19.9655 21.3701 19.9205C21.3901 19.8755 21.4151 19.8505 21.4351 19.8705C21.4501 19.8855 21.5101 19.8655 21.5601 19.8155C21.6101 19.7705 21.6501 19.7505 21.6501 19.7705C21.6501 19.7905 21.7201 19.7605 21.8001 19.7005C21.8851 19.6405 21.9501 19.6105 21.9501 19.6255C21.9501 19.6455 21.9851 19.6205 22.0301 19.5805C22.0701 19.5355 22.1251 19.5105 22.1501 19.5255C22.1701 19.5405 22.2051 19.5155 22.2201 19.4705C22.2401 19.4255 22.2651 19.4005 22.2851 19.4205C22.3001 19.4355 22.3601 19.4155 22.4101 19.3655C22.4601 19.3205 22.5001 19.3055 22.5001 19.3255C22.5001 19.3505 22.5351 19.3255 22.5801 19.2705C22.6201 19.2205 22.6401 19.2105 22.6201 19.2505C22.5801 19.3255 22.7851 19.1805 22.8601 19.0755C22.8801 19.0455 22.9051 18.6755 22.9101 18.2505C22.9151 17.6555 22.9251 17.5655 22.9451 17.8505C22.9601 18.0555 22.9751 17.1355 22.9751 15.8005C22.9751 14.4655 22.9651 13.5555 22.9501 13.7755C22.9301 14.0955 22.9201 14.0105 22.9001 13.3255C22.8851 12.8555 22.8651 12.5005 22.8601 12.5305ZM14.5351 20.3055C14.4801 20.3355 14.4151 20.3655 14.3851 20.3705C14.3501 20.3755 14.2251 20.4355 14.1001 20.5005C13.9751 20.5605 13.8751 20.6105 13.8751 20.6005C13.8751 20.5905 13.7801 20.6355 13.6651 20.6955C13.5451 20.7555 13.4501 20.7905 13.4501 20.7705C13.4501 20.7505 13.4151 20.7655 13.3751 20.8005C13.3351 20.8355 13.3001 20.8455 13.3001 20.8255C13.3001 20.8005 13.2601 20.8155 13.2151 20.8605C13.0851 20.9655 12.8901 21.0355 12.7651 21.0255C12.7051 21.0205 12.6651 21.0355 12.6801 21.0605C12.7201 21.1255 12.3251 21.1055 12.2601 21.0405C12.2251 21.0055 12.2001 20.9955 12.2001 21.0155C12.2001 21.0355 12.1501 21.0255 12.0901 20.9905C12.0251 20.9555 11.9651 20.9255 11.9501 20.9255C11.8301 20.8955 11.5001 20.7305 11.5001 20.6955C11.5001 20.6705 11.4701 20.6555 11.4401 20.6605C11.4051 20.6705 11.3801 20.6505 11.3851 20.6155C11.3901 20.5855 11.3601 20.5655 11.3101 20.5705C11.2651 20.5805 11.1901 20.5705 11.1501 20.5505C11.0451 20.4955 10.8401 20.4155 10.7401 20.3805C10.6901 20.3655 10.5451 20.4055 10.4151 20.4655C10.2851 20.5205 10.1651 20.5755 10.1501 20.5755C10.1351 20.5805 10.0301 20.6305 9.91513 20.6905C9.79513 20.7505 9.70013 20.7905 9.70013 20.7705C9.70013 20.7505 9.67013 20.7655 9.63513 20.7955C9.59513 20.8255 9.55013 20.8355 9.53513 20.8155C9.51513 20.8005 9.50013 20.8055 9.50013 20.8355C9.50013 20.8805 9.35513 20.9555 9.15013 21.0255C9.13513 21.0255 8.98513 21.1005 8.81513 21.1855C8.64013 21.2705 8.50013 21.3305 8.50013 21.3155C8.50013 21.3005 8.46513 21.3155 8.42513 21.3505C8.38513 21.3855 8.35013 21.3955 8.35013 21.3755C8.35013 21.3505 8.30513 21.3755 8.25013 21.4255C8.19513 21.4755 8.15013 21.5005 8.15013 21.4805C8.15013 21.4655 8.10013 21.4805 8.03513 21.5255C7.97013 21.5655 7.90013 21.5855 7.88513 21.5655C7.86513 21.5505 7.85013 21.5555 7.85013 21.5855C7.85013 21.6155 7.75013 21.6755 7.63013 21.7205C7.47013 21.7805 7.41513 21.8305 7.43513 21.8805C7.45013 21.9205 7.47513 21.9405 7.49013 21.9305C7.50513 21.9155 7.54513 21.9405 7.58513 21.9905C7.63513 22.0455 7.64513 22.0505 7.62513 22.0005C7.60513 21.9605 7.63013 21.9705 7.67013 22.0205C7.71513 22.0755 7.75013 22.1005 7.75013 22.0755C7.75013 22.0555 7.79513 22.0755 7.85013 22.1255C7.90513 22.1755 7.95013 22.1955 7.95013 22.1705C7.95013 22.1455 7.98513 22.1705 8.02513 22.2205C8.06513 22.2755 8.10013 22.3005 8.10013 22.2755C8.10013 22.2555 8.14513 22.2755 8.20013 22.3255C8.25513 22.3755 8.30013 22.4005 8.30013 22.3805C8.30013 22.3605 8.36013 22.3855 8.44013 22.4405C8.51513 22.4955 8.59513 22.5405 8.61513 22.5405C8.70013 22.5455 9.30013 22.8705 9.30013 22.9105C9.30013 22.9355 9.32013 22.9455 9.34513 22.9255C9.37013 22.9105 9.43013 22.9355 9.47013 22.9805C9.51513 23.0205 9.55013 23.0405 9.55013 23.0205C9.55013 23.0055 9.58513 23.0155 9.62513 23.0505C9.66513 23.0855 9.70013 23.1005 9.70013 23.0855C9.70013 23.0405 10.3701 23.4005 10.4101 23.4705C10.4301 23.5005 10.4501 23.5055 10.4501 23.4805C10.4501 23.4555 10.5001 23.4755 10.5601 23.5305C10.6251 23.5905 10.6501 23.5955 10.6251 23.5505C10.5951 23.4955 10.6101 23.5005 10.6851 23.5655C10.7401 23.6105 10.8101 23.6505 10.8401 23.6505C10.8751 23.6505 10.9001 23.6755 10.9001 23.7055C10.9001 23.7305 10.9201 23.7455 10.9451 23.7255C10.9701 23.7105 11.0301 23.7355 11.0701 23.7805C11.1151 23.8205 11.1501 23.8455 11.1501 23.8305C11.1501 23.7905 11.7701 24.1105 11.8101 24.1705C11.8301 24.2005 11.8501 24.2055 11.8501 24.1805C11.8501 24.1555 11.8951 24.1755 11.9501 24.2255C12.0051 24.2755 12.0501 24.2955 12.0501 24.2755C12.0501 24.2555 12.0951 24.2755 12.1501 24.3255C12.2051 24.3755 12.2501 24.4005 12.2501 24.3855C12.2501 24.3705 12.3101 24.3905 12.3851 24.4255C12.5051 24.4905 12.5301 24.4855 12.6101 24.4155C12.6601 24.3705 12.7001 24.3555 12.7001 24.3755C12.7001 24.3955 12.7451 24.3755 12.8001 24.3255C12.8551 24.2755 12.9001 24.2555 12.9001 24.2805C12.9001 24.3055 12.9201 24.3005 12.9401 24.2655C12.9601 24.2355 13.0101 24.2005 13.0501 24.1905C13.0901 24.1805 13.1551 24.1455 13.1901 24.1105C13.2301 24.0755 13.2801 24.0605 13.3051 24.0755C13.3301 24.0955 13.3501 24.0805 13.3501 24.0505C13.3501 24.0155 13.3801 24.0005 13.4201 24.0155C13.4601 24.0305 13.5001 24.0255 13.5101 24.0055C13.5301 23.9455 14.3501 23.5405 14.3501 23.5855C14.3501 23.6105 14.3701 23.6005 14.3901 23.5655C14.4101 23.5355 14.4601 23.5005 14.5001 23.4905C14.5401 23.4805 14.6051 23.4455 14.6401 23.4105C14.6801 23.3755 14.7301 23.3605 14.7551 23.3755C14.7801 23.3955 14.8001 23.3855 14.8001 23.3605C14.8001 23.3105 15.0651 23.1805 15.1301 23.2005C15.1501 23.2055 15.1801 23.1855 15.2001 23.1505C15.2201 23.1205 15.2701 23.0905 15.3101 23.0805C15.3501 23.0755 15.4401 23.0355 15.5051 22.9955C15.6851 22.8805 16.1701 22.6555 16.2051 22.6655C16.2251 22.6705 16.2801 22.6355 16.3301 22.5905C16.3851 22.5455 16.4401 22.5055 16.4651 22.5055C16.4851 22.5055 16.5701 22.4655 16.6501 22.4255C16.7351 22.3805 16.8001 22.3655 16.8001 22.3855C16.8001 22.4105 16.8201 22.4005 16.8401 22.3655C16.8601 22.3355 16.9101 22.3005 16.9501 22.2905C16.9901 22.2805 17.0551 22.2455 17.0901 22.2105C17.1301 22.1755 17.1801 22.1605 17.2051 22.1755C17.2301 22.1955 17.2501 22.1855 17.2501 22.1605C17.2501 22.1255 17.4301 22.0105 17.5501 21.9755C17.6501 21.9455 17.7501 21.8855 17.7501 21.8555C17.7501 21.8405 17.6601 21.7805 17.5501 21.7305C17.4401 21.6755 17.3501 21.6155 17.3501 21.5905C17.3501 21.5655 17.3301 21.5555 17.3051 21.5755C17.2801 21.5905 17.2201 21.5655 17.1801 21.5205C17.1351 21.4805 17.1001 21.4605 17.1001 21.4805C17.1001 21.5005 17.0551 21.4755 16.9951 21.4205C16.9351 21.3705 16.8851 21.3355 16.8801 21.3505C16.8651 21.3905 16.4501 21.1905 16.4501 21.1405C16.4501 21.1155 16.4301 21.1055 16.4051 21.1255C16.3801 21.1405 16.3201 21.1155 16.2801 21.0705C16.2351 21.0305 16.2001 21.0105 16.2001 21.0305C16.2001 21.0505 16.1551 21.0255 16.1001 20.9755C16.0451 20.9255 16.0001 20.9005 16.0001 20.9205C16.0001 20.9555 14.8451 20.3655 14.8001 20.3055C14.7551 20.2505 14.6301 20.2505 14.5351 20.3055Z" fill="white"></path>
  <path d="M11.59 0.855273C11.085 1.10527 10.635 1.34527 10.59 1.39027C10.54 1.43027 10.5 1.45027 10.5 1.42527C10.5 1.40527 10.47 1.41027 10.435 1.44027C10.375 1.49027 9.885 1.74527 8.955 2.21527C8.745 2.32027 8.535 2.44527 8.49 2.48527C8.44 2.53027 8.4 2.54527 8.4 2.52527C8.4 2.50527 8.36 2.52027 8.315 2.56027C8.265 2.60027 8.14 2.67027 8.035 2.72027C7.93 2.77027 7.7 2.89027 7.52 2.99527L7.19 3.18527L7.47 3.32527C7.625 3.40027 7.765 3.48527 7.78 3.50527C7.795 3.53027 7.825 3.54027 7.85 3.52527C7.875 3.51027 7.91 3.52527 7.925 3.55527C7.97 3.62527 10.645 4.95027 10.75 4.95027C10.855 4.95027 11.96 4.40527 12.01 4.33027C12.03 4.30027 12.05 4.29027 12.05 4.31527C12.05 4.33527 12.145 4.30527 12.26 4.24527L12.465 4.14027L13.305 4.57027C13.77 4.80527 14.18 5.00027 14.22 5.00027C14.255 5.00027 14.465 4.91527 14.68 4.81527C14.9 4.71527 15.085 4.63027 15.1 4.62527C15.115 4.62527 15.255 4.56027 15.42 4.48527C15.58 4.41027 15.72 4.35027 15.73 4.35027C15.74 4.35027 15.965 4.25027 16.22 4.12527C16.48 4.00027 16.705 3.90027 16.72 3.90027C16.795 3.90027 17.9 3.34527 17.9 3.30527C17.9 3.28027 17.85 3.24027 17.79 3.22027C17.725 3.20527 17.645 3.16027 17.605 3.13027C17.53 3.07027 16.62 2.58027 15.98 2.25027C15.765 2.14027 15.555 2.02527 15.52 1.99527C15.48 1.96527 15.45 1.95527 15.45 1.97527C15.45 2.00027 15.41 1.98027 15.36 1.93527C15.315 1.89027 15.105 1.77527 14.9 1.67527C14.695 1.57527 14.46 1.45527 14.375 1.40527C14.295 1.35527 13.935 1.16527 13.575 0.975273C13.22 0.790273 12.83 0.585273 12.715 0.520273L12.505 0.405273L11.59 0.855273ZM12.765 0.665273C12.84 0.715273 12.9 0.735273 12.9 0.715273C12.9 0.690273 12.92 0.700273 12.94 0.730273C12.99 0.805273 14.25 1.46527 14.25 1.41527C14.25 1.39527 14.28 1.41027 14.315 1.45527C14.37 1.53027 14.53 1.61027 14.57 1.58527C14.58 1.58027 14.635 1.62027 14.695 1.67027C14.755 1.72527 14.8 1.74527 14.8 1.72527C14.8 1.70027 14.83 1.72527 14.87 1.78027C14.91 1.83027 14.96 1.86027 14.98 1.84027C15 1.82027 15.045 1.84027 15.085 1.89027C15.13 1.94027 15.145 1.94527 15.12 1.90027C15.09 1.84527 15.11 1.85027 15.185 1.91527C15.24 1.96027 15.3 1.98527 15.315 1.96527C15.335 1.95027 15.35 1.95527 15.35 1.98527C15.35 2.03027 15.515 2.13027 15.615 2.14027C15.635 2.14527 15.69 2.18027 15.73 2.22527C15.775 2.26527 15.83 2.29027 15.855 2.27527C15.88 2.25527 15.9 2.26527 15.9 2.29027C15.9 2.31027 16.05 2.41027 16.24 2.50527C16.425 2.59527 16.685 2.74027 16.82 2.81527C16.955 2.89527 17.105 2.96027 17.155 2.96527C17.205 2.97027 17.23 2.99027 17.22 3.01027C17.205 3.03027 17.22 3.05027 17.245 3.05027C17.355 3.05027 17.375 3.06027 17.465 3.13527C17.51 3.18027 17.55 3.19527 17.55 3.17027C17.55 3.14527 17.575 3.16527 17.605 3.21527C17.635 3.26527 17.685 3.28527 17.715 3.26527C17.75 3.25027 17.73 3.28027 17.68 3.34027C17.625 3.40027 17.575 3.44027 17.56 3.42527C17.545 3.41027 17.49 3.44027 17.435 3.48527C17.385 3.53527 17.325 3.57027 17.305 3.57027C17.29 3.56527 17.22 3.58527 17.15 3.61527C17.08 3.64527 17.015 3.67027 17 3.67027C16.985 3.67527 16.84 3.74527 16.675 3.82027C16.51 3.90027 16.365 3.97027 16.35 3.97527C16.335 3.98027 16.27 4.00527 16.2 4.03527C16.13 4.06527 16.06 4.09027 16.035 4.09527C16.015 4.09527 15.86 4.17027 15.685 4.26027C15.515 4.35027 15.365 4.42527 15.35 4.42527C15.335 4.43027 15.235 4.47027 15.125 4.52027C15.015 4.57027 14.835 4.64527 14.725 4.68527C14.615 4.73027 14.485 4.80027 14.44 4.84027C14.39 4.88027 14.35 4.89527 14.35 4.87527C14.35 4.85027 14.325 4.85527 14.295 4.88527C14.255 4.92527 14.195 4.91527 14.075 4.85027C13.985 4.80027 13.9 4.76527 13.885 4.78027C13.875 4.79027 13.835 4.77027 13.8 4.72527C13.765 4.68527 13.7 4.65027 13.65 4.65027C13.6 4.65027 13.535 4.61527 13.5 4.57527C13.465 4.53027 13.425 4.51027 13.41 4.52027C13.4 4.53527 13.355 4.51027 13.315 4.47027C13.275 4.43027 13.22 4.41027 13.195 4.42527C13.17 4.44527 13.15 4.43527 13.15 4.41027C13.15 4.36527 12.745 4.16027 12.71 4.19027C12.7 4.20027 12.665 4.17027 12.63 4.12527C12.595 4.07527 12.525 4.05527 12.45 4.06527C12.275 4.10027 11.95 4.26027 11.95 4.31027C11.95 4.33527 11.93 4.34527 11.905 4.33027C11.88 4.31527 11.835 4.33527 11.8 4.37527C11.765 4.41527 11.72 4.44027 11.7 4.42527C11.68 4.41027 11.635 4.43527 11.6 4.47527C11.565 4.51527 11.515 4.55027 11.49 4.55027C11.465 4.55027 11.28 4.62527 11.085 4.71527C10.73 4.88027 10.72 4.88027 10.58 4.79527C10.5 4.74527 10.415 4.71527 10.39 4.73027C10.37 4.74527 10.35 4.73527 10.35 4.71027C10.35 4.66527 9.87 4.43527 9.83 4.46027C9.82 4.47027 9.765 4.43027 9.705 4.38027C9.645 4.32527 9.6 4.30527 9.6 4.32527C9.6 4.34527 9.555 4.32527 9.5 4.27527C9.445 4.22527 9.4 4.20527 9.4 4.22527C9.4 4.24527 9.36 4.23027 9.315 4.19027C9.22 4.10527 8.73 3.87527 8.72 3.90527C8.715 3.91527 8.665 3.88527 8.615 3.83527C8.56 3.79027 8.5 3.76527 8.485 3.78527C8.465 3.80027 8.45 3.79027 8.45 3.75527C8.45 3.72027 8.43 3.70527 8.405 3.72027C8.38 3.74027 8.35 3.73027 8.34 3.70527C8.335 3.68027 8.29 3.65027 8.25 3.64027C8.21 3.63027 8.145 3.59527 8.11 3.56027C8.07 3.52527 8.02 3.51027 7.995 3.52527C7.97 3.54527 7.95 3.53527 7.95 3.51027C7.95 3.46527 7.7 3.32527 7.64 3.34027C7.615 3.34527 7.6 3.33027 7.6 3.30527C7.6 3.28027 7.55 3.24027 7.495 3.22527C7.395 3.19027 7.405 3.18027 7.58 3.07027C7.69 3.00527 7.815 2.93527 7.865 2.92027C7.91 2.90027 7.95 2.86527 7.95 2.84027C7.95 2.81527 7.97 2.80527 7.995 2.82527C8.02 2.84027 8.075 2.81527 8.115 2.77527C8.16 2.73527 8.225 2.70027 8.26 2.70027C8.3 2.70027 8.38 2.65527 8.44 2.60027C8.5 2.54027 8.55 2.51027 8.55 2.53027C8.55 2.55027 8.6 2.52527 8.66 2.47027C8.73 2.40527 8.755 2.40027 8.73 2.45027C8.71 2.49027 8.73 2.48027 8.77 2.43027C8.815 2.37527 8.85 2.35027 8.85 2.37527C8.85 2.39527 8.895 2.37527 8.95 2.32527C9.005 2.27527 9.05 2.25527 9.05 2.27527C9.05 2.29527 9.09 2.28027 9.14 2.23527C9.19 2.18527 9.25 2.16527 9.265 2.18027C9.285 2.20027 9.31 2.17527 9.33 2.13027C9.345 2.08527 9.38 2.06527 9.41 2.08027C9.435 2.09527 9.49 2.07027 9.525 2.02027C9.565 1.96527 9.6 1.94527 9.6 1.96527C9.6 2.01527 10.56 1.51027 10.61 1.43027C10.63 1.40027 10.65 1.39527 10.65 1.42027C10.65 1.44527 10.7 1.42527 10.76 1.37027C10.82 1.32027 10.85 1.30027 10.835 1.33527C10.81 1.37027 10.855 1.36527 10.95 1.32027C11.03 1.27527 11.1 1.22027 11.1 1.19527C11.1 1.16527 11.12 1.15527 11.145 1.17527C11.17 1.19027 11.22 1.17027 11.26 1.13527C11.295 1.10027 11.35 1.06027 11.375 1.05527C11.49 1.02527 11.78 0.875273 11.81 0.830273C11.83 0.800273 11.85 0.795273 11.85 0.820273C11.85 0.845273 11.895 0.825273 11.95 0.775273C12.005 0.725273 12.05 0.705273 12.05 0.725273C12.05 0.745273 12.095 0.725273 12.155 0.670273C12.215 0.620273 12.265 0.580273 12.27 0.590273C12.27 0.600273 12.31 0.595273 12.35 0.580273C12.53 0.525273 12.575 0.515273 12.6 0.545273C12.615 0.565273 12.685 0.615273 12.765 0.665273ZM4.915 4.35027C4.625 4.46527 4.115 4.72527 4.03 4.79527C3.98 4.84027 3.935 4.86527 3.93 4.85527C3.92 4.82027 2.215 5.68527 2.08 5.79527C2.005 5.85527 2 6.16027 2 9.23027L2.005 12.5953L2.47 12.4003C2.73 12.2903 3.02 12.1603 3.12 12.1053C3.22 12.0453 3.3 12.0103 3.3 12.0253C3.3 12.0453 3.66 11.8853 4.3 11.5853C4.48 11.5053 4.75 11.3853 4.9 11.3203L5.175 11.2103L5.19 9.40527C5.195 8.41027 5.215 7.60027 5.23 7.60027C5.26 7.60027 6.21 8.10027 6.625 8.33527C6.735 8.39527 6.915 8.49027 7.025 8.55027C7.135 8.60527 7.43 8.76527 7.675 8.90027C7.925 9.04027 8.24 9.21027 8.375 9.28027C8.515 9.35027 8.68 9.44027 8.75 9.47527C8.845 9.53027 8.885 9.53027 8.945 9.48527C8.985 9.45027 9.02 9.43027 9.02 9.44027C9.03 9.46527 9.24 9.38027 9.725 9.15027C9.975 9.03027 10.19 8.93527 10.21 8.94027C10.225 8.94527 10.27 8.91527 10.3 8.87527C10.335 8.83527 10.39 8.80027 10.425 8.80027C10.485 8.80027 10.795 8.67027 11.325 8.42527C11.465 8.36027 11.735 8.24027 11.925 8.15027L12.275 7.99527L12.15 7.90027C12.08 7.84527 11.995 7.81027 11.965 7.82527C11.93 7.83527 11.905 7.82527 11.915 7.79527C11.925 7.74527 11.5 7.49527 10.625 7.04527C10.35 6.90527 9.765 6.60027 9.325 6.37027C7.97 5.66027 5.39 4.38527 5.32 4.38527C5.28 4.38527 5.25 4.36527 5.25 4.34027C5.25 4.29027 5.055 4.29527 4.915 4.35027ZM5.35 4.49027C5.42 4.51527 5.5 4.54527 5.525 4.55027C5.555 4.55527 5.605 4.58027 5.64 4.61027C5.67 4.64027 5.7 4.64527 5.7 4.63027C5.7 4.61027 5.735 4.63027 5.78 4.67027C5.82 4.71527 5.88 4.74027 5.905 4.72527C5.93 4.70527 5.95 4.71527 5.95 4.74027C5.95 4.79027 6.25 4.93027 6.315 4.91027C6.335 4.90527 6.35 4.92527 6.35 4.95027C6.35 4.99027 6.525 5.09527 6.65 5.12527C6.665 5.12527 6.835 5.20527 7.025 5.30027C7.22 5.39527 7.395 5.47027 7.415 5.47527C7.435 5.47527 7.47 5.49527 7.49 5.52527C7.51 5.55027 7.58 5.60527 7.645 5.64027C7.74 5.69527 7.755 5.69527 7.72 5.64027C7.7 5.60527 7.73 5.62027 7.79 5.67027C7.85 5.72527 7.9 5.75027 7.9 5.73027C7.9 5.71027 7.935 5.73027 7.98 5.77027C8.02 5.81527 8.08 5.84027 8.105 5.82527C8.13 5.80527 8.15 5.81527 8.15 5.84027C8.15 5.89027 8.805 6.23027 8.865 6.21027C8.885 6.20527 8.9 6.22027 8.9 6.24527C8.9 6.29527 9.05 6.36027 9.105 6.33527C9.125 6.33027 9.185 6.37027 9.245 6.42027C9.305 6.47527 9.35 6.49527 9.35 6.47027C9.35 6.44527 9.37 6.45027 9.39 6.48027C9.445 6.56527 10.01 6.85027 10.055 6.82027C10.08 6.80527 10.1 6.82027 10.1 6.85027C10.1 6.89527 10.315 7.00527 10.4 7.00527C10.415 7.00527 10.465 7.04527 10.51 7.08527C10.56 7.13027 10.6 7.14527 10.6 7.12027C10.6 7.09527 10.63 7.11027 10.665 7.15027C10.7 7.19027 10.78 7.25527 10.845 7.29027C10.94 7.34527 10.955 7.34527 10.92 7.29027C10.9 7.25527 10.94 7.27527 11.01 7.34027C11.08 7.40527 11.175 7.46027 11.215 7.47027C11.255 7.47527 11.325 7.51027 11.37 7.54527C11.415 7.58027 11.45 7.59527 11.45 7.57027C11.45 7.55027 11.485 7.57527 11.525 7.63027C11.565 7.68027 11.6 7.70527 11.6 7.68027C11.6 7.65527 11.645 7.67527 11.7 7.72527C11.755 7.77527 11.8 7.80027 11.8 7.78527C11.8 7.76527 11.845 7.79527 11.9 7.85027C11.96 7.91027 12.025 7.94027 12.05 7.92527C12.075 7.91027 12.11 7.92527 12.13 7.95527C12.15 7.99027 12.145 8.00027 12.11 7.98027C12.08 7.96527 12.03 7.98027 11.99 8.01527C11.955 8.05527 11.895 8.07527 11.86 8.06027C11.83 8.05027 11.8 8.06527 11.8 8.09527C11.8 8.12527 11.765 8.15027 11.725 8.15027C11.64 8.15027 11.475 8.23527 11.34 8.34527C11.29 8.38527 11.25 8.40027 11.25 8.37527C11.25 8.35527 11.22 8.36027 11.19 8.39027C11.155 8.41527 11.05 8.45527 10.96 8.47527C10.87 8.49027 10.81 8.52527 10.82 8.54527C10.835 8.56527 10.8 8.58527 10.745 8.58527C10.685 8.59027 10.61 8.62527 10.565 8.66027C10.525 8.69027 10.455 8.72527 10.41 8.73027C10.37 8.74027 10.315 8.77527 10.295 8.81027C10.27 8.84527 10.25 8.85527 10.25 8.82527C10.25 8.80027 10.225 8.80527 10.19 8.84027C10.155 8.87527 10.1 8.90027 10.065 8.90027C9.985 8.90027 9.335 9.20527 9.295 9.26527C9.28 9.29027 9.245 9.31027 9.22 9.31027C9.155 9.31527 9.035 9.35027 8.945 9.40027C8.89 9.43027 8.81 9.41027 8.705 9.34527C8.62 9.29527 8.55 9.27027 8.55 9.29027C8.55 9.31027 8.53 9.30027 8.51 9.27027C8.46 9.19027 7.36 8.60527 7.325 8.64027C7.31 8.65527 7.3 8.64527 7.3 8.61527C7.3 8.58527 7.225 8.53527 7.14 8.49527C7.05 8.46027 6.965 8.42027 6.95 8.40027C6.935 8.38527 6.815 8.31527 6.675 8.24027C6.54 8.17027 6.3 8.04027 6.145 7.96027C5.985 7.87527 5.845 7.82027 5.83 7.83527C5.815 7.85527 5.8 7.84527 5.8 7.81527C5.8 7.78527 5.705 7.71027 5.59 7.65027C5.375 7.53527 5.15 7.48027 5.155 7.54027C5.16 7.56027 5.16 8.37027 5.155 9.34027L5.15 11.1003L4.9 11.2103C4.765 11.2703 4.65 11.3403 4.65 11.3603C4.65 11.3853 4.63 11.3953 4.605 11.3803C4.565 11.3553 4.43 11.4053 4.25 11.5253C4.21 11.5503 4.15 11.5753 4.12 11.5803C4.09 11.5853 3.955 11.6403 3.82 11.6953C3.685 11.7553 3.57 11.8003 3.57 11.7903C3.565 11.7803 3.515 11.8203 3.455 11.8703C3.395 11.9253 3.35 11.9503 3.35 11.9253C3.35 11.9053 3.295 11.9253 3.225 11.9703C3.155 12.0153 3.1 12.0403 3.1 12.0203C3.1 12.0003 3.065 12.0203 3.02 12.0553C2.975 12.0903 2.905 12.1253 2.86 12.1303C2.82 12.1403 2.77 12.1603 2.755 12.1853C2.74 12.2053 2.68 12.2303 2.625 12.2403C2.57 12.2503 2.475 12.2903 2.415 12.3303C2.35 12.3703 2.3 12.3903 2.3 12.3703C2.3 12.3503 2.265 12.3653 2.225 12.4003C2.18 12.4353 2.13 12.4503 2.11 12.4303C2.065 12.3853 2.03 6.08527 2.075 5.91527C2.09 5.85027 2.125 5.81027 2.145 5.82527C2.17 5.84027 2.22 5.82527 2.26 5.79027C2.295 5.75527 2.36 5.72027 2.4 5.71027C2.44 5.70027 2.485 5.67027 2.49 5.64527C2.5 5.62027 2.53 5.61027 2.555 5.63027C2.58 5.64527 2.6 5.63027 2.6 5.59527C2.6 5.56027 2.615 5.55027 2.635 5.56527C2.65 5.58527 2.71 5.56027 2.765 5.51527C2.815 5.46527 2.87 5.43027 2.88 5.44027C2.91 5.46027 3.245 5.30027 3.4 5.19527C3.47 5.15027 3.55 5.10527 3.575 5.10027C3.695 5.07027 3.85 4.98027 3.85 4.94027C3.85 4.91527 3.87 4.90527 3.895 4.92027C3.92 4.93527 3.965 4.91527 4 4.87527C4.035 4.83527 4.08 4.81027 4.1 4.82527C4.12 4.84027 4.165 4.81527 4.2 4.77527C4.235 4.73527 4.285 4.71527 4.31 4.73027C4.335 4.74527 4.39 4.72027 4.425 4.67027C4.465 4.61527 4.5 4.59527 4.5 4.62027C4.5 4.64527 4.535 4.63527 4.575 4.60027C4.615 4.56527 4.65 4.55527 4.65 4.57527C4.65 4.60027 4.695 4.57527 4.75 4.52527C4.805 4.47527 4.85 4.45027 4.85 4.46527C4.85 4.48027 4.925 4.46527 5.01 4.42527C5.1 4.39027 5.185 4.38027 5.2 4.40027C5.215 4.42527 5.285 4.46527 5.35 4.49027ZM19.775 4.60027C19.61 4.67527 19.305 4.81527 19.1 4.90027C18.895 4.99027 18.57 5.13527 18.375 5.22527C18.185 5.31527 17.835 5.47027 17.6 5.57527C17.365 5.68027 17.17 5.78527 17.16 5.81027C17.15 5.83027 17.11 5.85027 17.07 5.85027C16.98 5.85027 16.45 6.11027 16.45 6.15527C16.45 6.17527 16.5 6.21027 16.555 6.22527C16.615 6.24527 16.755 6.32527 16.87 6.40027C16.98 6.48027 17.09 6.53027 17.11 6.52027C17.135 6.50527 17.15 6.52027 17.15 6.54527C17.15 6.57527 17.17 6.60027 17.195 6.60027C17.225 6.60027 17.385 6.68527 17.56 6.79027C18.34 7.27027 18.6 7.40527 18.65 7.37527C18.68 7.35527 18.695 7.36527 18.69 7.39027C18.68 7.41527 18.73 7.48027 18.795 7.53527L18.915 7.63027L18.335 7.91527C18.015 8.07027 17.74 8.20027 17.73 8.20027C17.715 8.20027 17.485 8.30027 17.22 8.42527C16.955 8.55027 16.735 8.65027 16.725 8.65027C16.715 8.65027 16.485 8.75527 16.215 8.88527C15.945 9.01527 15.705 9.12527 15.675 9.13027C15.65 9.13527 15.41 9.24027 15.15 9.36027C14.89 9.48527 14.53 9.64527 14.35 9.72527C14.17 9.80027 13.815 9.96027 13.56 10.0803C13.305 10.2003 13.085 10.3003 13.07 10.3003C13.06 10.3003 12.835 10.4003 12.58 10.5253C12.32 10.6503 12.095 10.7503 12.08 10.7503C12.07 10.7503 11.835 10.8553 11.565 10.9853C11.295 11.1153 11.055 11.2253 11.025 11.2303C11 11.2353 10.78 11.3303 10.535 11.4453C10.295 11.5553 10.095 11.6453 10.085 11.6453C10.08 11.6453 9.965 11.7003 9.825 11.7653C9.69 11.8353 9.44 11.9453 9.275 12.0153C9.11 12.0853 8.865 12.2003 8.725 12.2703C8.59 12.3403 8.46 12.4003 8.44 12.4003C8.42 12.4003 8.185 12.5053 7.915 12.6353C7.645 12.7653 7.405 12.8753 7.375 12.8803C7.35 12.8853 7.105 12.9903 6.84 13.1203C6.575 13.2453 6.345 13.3503 6.33 13.3503C6.315 13.3503 6.135 13.4303 5.925 13.5253C5.72 13.6203 5.38 13.7803 5.175 13.8753C4.965 13.9703 4.79 14.0503 4.78 14.0503C4.765 14.0503 4.535 14.1553 4.265 14.2853C3.995 14.4153 3.755 14.5253 3.725 14.5303C3.7 14.5353 3.475 14.6353 3.225 14.7553C2.98 14.8703 2.76 14.9653 2.74 14.9603C2.725 14.9553 2.68 14.9853 2.65 15.0253C2.615 15.0653 2.56 15.1003 2.52 15.1003C2.25 15.1003 1.955 15.4253 2.095 15.5653C2.135 15.6053 2.15 15.5803 2.15 15.4603C2.15 15.3703 2.175 15.2953 2.2 15.2953C2.305 15.2803 2.415 15.2353 2.925 14.9953C3.12 14.9053 3.285 14.8253 3.3 14.8203C3.475 14.7703 3.65 14.6803 3.65 14.6353C3.65 14.6053 3.665 14.6003 3.68 14.6153C3.7 14.6303 3.76 14.6203 3.82 14.5903C3.875 14.5553 3.935 14.5253 3.95 14.5203C4.115 14.4753 4.3 14.3803 4.3 14.3353C4.3 14.3053 4.315 14.3003 4.335 14.3153C4.35 14.3353 4.395 14.3253 4.435 14.2953C4.47 14.2653 4.5 14.2503 4.5 14.2703C4.5 14.2903 4.595 14.2503 4.71 14.1903C4.83 14.1303 4.935 14.0753 4.95 14.0703C5.105 14.0253 5.3 13.9353 5.3 13.9053C5.3 13.8853 5.33 13.8653 5.365 13.8653C5.44 13.8653 6.14 13.5603 6.245 13.4803C6.28 13.4503 6.345 13.4253 6.39 13.4153C6.435 13.4103 6.48 13.3803 6.49 13.3503C6.5 13.3253 6.53 13.3103 6.555 13.3253C6.575 13.3403 6.665 13.3203 6.75 13.2753C6.83 13.2353 6.915 13.1953 6.935 13.1953C6.96 13.1953 7.015 13.1553 7.065 13.1153C7.11 13.0703 7.15 13.0503 7.15 13.0753C7.15 13.0953 7.185 13.0803 7.23 13.0453C7.275 13.0103 7.345 12.9753 7.39 12.9703C7.43 12.9603 7.48 12.9403 7.495 12.9153C7.51 12.8953 7.55 12.8753 7.575 12.8703C7.695 12.8603 7.95 12.7353 7.95 12.6853C7.95 12.6553 7.965 12.6503 7.985 12.6653C8 12.6853 8.045 12.6753 8.085 12.6453C8.12 12.6153 8.15 12.6003 8.15 12.6153C8.15 12.6553 8.915 12.2953 8.955 12.2353C8.97 12.2103 9 12.1953 9.02 12.1953C9.035 12.2003 9.06 12.1953 9.075 12.1953C9.09 12.1903 9.115 12.1853 9.14 12.1803C9.16 12.1753 9.26 12.1303 9.37 12.0853C9.475 12.0403 9.58 12.0003 9.6 12.0003C9.62 12.0003 9.665 11.9653 9.7 11.9253C9.735 11.8853 9.78 11.8603 9.8 11.8753C9.82 11.8903 9.865 11.8653 9.9 11.8253C9.935 11.7853 9.98 11.7603 10 11.7753C10.025 11.7903 10.08 11.7653 10.12 11.7203C10.165 11.6803 10.2 11.6553 10.2 11.6703C10.2 11.7053 10.6 11.5503 10.695 11.4803C10.73 11.4553 10.795 11.4253 10.84 11.4203C10.88 11.4103 10.93 11.3903 10.945 11.3653C10.96 11.3453 11.01 11.3203 11.05 11.3103C11.09 11.3003 11.135 11.2703 11.14 11.2453C11.15 11.2203 11.175 11.2103 11.2 11.2253C11.22 11.2403 11.305 11.2153 11.38 11.1753C11.46 11.1353 11.55 11.1003 11.58 11.1003C11.61 11.1003 11.665 11.0653 11.7 11.0253C11.735 10.9803 11.775 10.9553 11.785 10.9703C11.815 11.0003 12.565 10.6453 12.61 10.5803C12.63 10.5503 12.65 10.5453 12.65 10.5703C12.65 10.5953 12.68 10.5903 12.715 10.5603C12.745 10.5303 12.79 10.5053 12.815 10.5053C12.835 10.5053 12.93 10.4653 13.03 10.4253C13.13 10.3853 13.23 10.3503 13.25 10.3503C13.27 10.3503 13.315 10.3153 13.35 10.2753C13.385 10.2353 13.43 10.2103 13.45 10.2253C13.47 10.2403 13.515 10.2153 13.55 10.1753C13.585 10.1353 13.63 10.1103 13.65 10.1253C13.675 10.1403 13.73 10.1153 13.77 10.0703C13.815 10.0303 13.85 10.0053 13.85 10.0203C13.85 10.0653 14.265 9.89527 14.365 9.81027C14.41 9.77027 14.45 9.75027 14.45 9.77527C14.45 9.79527 14.485 9.78027 14.53 9.74527C14.575 9.71027 14.645 9.67527 14.69 9.66527C14.735 9.66027 14.78 9.63027 14.79 9.60027C14.8 9.57527 14.825 9.56027 14.85 9.57527C14.87 9.59027 15.015 9.53527 15.17 9.45527C15.325 9.37027 15.45 9.31527 15.45 9.33027C15.45 9.34027 15.585 9.28527 15.75 9.20027C15.915 9.11527 16.065 9.05027 16.085 9.04527C16.11 9.04527 16.165 9.00527 16.215 8.96527C16.26 8.92027 16.3 8.90027 16.3 8.92527C16.3 8.94527 16.33 8.94027 16.365 8.91027C16.395 8.88027 16.44 8.85527 16.465 8.85527C16.485 8.85527 16.58 8.81527 16.68 8.77527C16.78 8.73527 16.88 8.70027 16.9 8.70027C16.92 8.70027 16.965 8.66527 17 8.62527C17.035 8.58027 17.075 8.56027 17.09 8.57527C17.105 8.59027 17.16 8.56527 17.21 8.51527C17.26 8.47027 17.3 8.45027 17.3 8.47527C17.3 8.49527 17.335 8.48527 17.375 8.45027C17.415 8.41527 17.45 8.40027 17.45 8.41527C17.45 8.44527 17.86 8.26527 18 8.17527C18.04 8.15027 18.085 8.12527 18.1 8.12027C18.235 8.09027 18.45 7.98027 18.45 7.94527C18.45 7.92027 18.465 7.90527 18.49 7.90527C18.51 7.91027 18.54 7.90527 18.565 7.90027C18.585 7.89527 18.615 7.88527 18.64 7.87527C18.85 7.82027 18.95 7.74027 18.95 7.63027C18.95 7.56527 18.915 7.48527 18.875 7.45027C18.835 7.41527 18.8 7.40027 18.8 7.42027C18.8 7.43527 18.755 7.40527 18.7 7.35027C18.64 7.29027 18.575 7.26027 18.55 7.27527C18.52 7.29527 18.5 7.28027 18.5 7.25027C18.5 7.22027 18.46 7.18527 18.415 7.16527C18.365 7.15027 18.265 7.09027 18.19 7.04027C18.11 6.98527 18.05 6.96027 18.05 6.98527C18.05 7.00527 18.03 7.00027 18.01 6.97027C17.96 6.89527 17.4 6.58527 17.4 6.63527C17.4 6.65527 17.375 6.64027 17.35 6.60027C17.325 6.56027 17.28 6.52527 17.25 6.52527C17.22 6.52527 17.175 6.49027 17.15 6.45027C17.125 6.41027 17.1 6.39527 17.1 6.41527C17.1 6.44027 17.04 6.41027 16.97 6.35527C16.895 6.30027 16.82 6.26027 16.8 6.27527C16.75 6.30527 16.69 6.15527 16.73 6.09527C16.745 6.07027 16.785 6.05027 16.825 6.05027C16.86 6.05027 16.93 6.01527 16.97 5.97027C17.015 5.93027 17.05 5.91027 17.05 5.93027C17.05 5.94527 17.085 5.93027 17.13 5.89527C17.175 5.86027 17.24 5.82527 17.28 5.82027C17.32 5.81527 17.445 5.76027 17.565 5.70527C17.685 5.64527 17.795 5.60027 17.815 5.60027C17.835 5.60027 17.94 5.54527 18.05 5.47527C18.16 5.40527 18.25 5.36527 18.25 5.38027C18.25 5.40027 18.295 5.37527 18.355 5.32027C18.415 5.27027 18.47 5.23027 18.48 5.24027C18.52 5.26527 18.75 5.18527 18.75 5.14527C18.75 5.12027 18.765 5.10527 18.79 5.11027C18.855 5.13027 19.2 4.98027 19.2 4.93527C19.2 4.91527 19.22 4.90527 19.245 4.92527C19.27 4.94027 19.305 4.93027 19.325 4.90027C19.34 4.87527 19.395 4.85027 19.445 4.85027C19.495 4.85027 19.565 4.81527 19.6 4.77527C19.63 4.73527 19.675 4.70527 19.69 4.71027C19.725 4.71527 19.81 4.69027 20.035 4.59527C20.105 4.57027 20.2 4.57027 20.275 4.60027C20.345 4.62527 20.4 4.63027 20.4 4.61027C20.4 4.59027 20.42 4.60027 20.44 4.63027C20.49 4.71027 20.98 4.95027 21.02 4.91527C21.035 4.89527 21.05 4.91027 21.05 4.94027C21.05 4.97527 21.085 5.00027 21.13 5.00027C21.175 5.00027 21.24 5.03027 21.27 5.07027C21.3 5.11027 21.37 5.15027 21.425 5.16027C21.48 5.17027 21.555 5.20527 21.59 5.24027C21.63 5.27527 21.675 5.29027 21.7 5.27527C21.725 5.26027 21.75 5.27027 21.76 5.29027C21.775 5.33527 22.72 5.85027 22.79 5.85027C22.81 5.85027 22.835 6.52027 22.85 7.33527L22.875 8.82527L22.91 7.35027C22.94 6.20027 22.935 5.86527 22.885 5.82027C22.775 5.71027 20.37 4.50527 20.22 4.48027C20.125 4.46527 19.97 4.50527 19.775 4.60027ZM22.8 9.51527C22.8 9.70027 22.785 9.84527 22.765 9.84027C22.71 9.82027 21.94 10.1553 21.84 10.2403C21.79 10.2803 21.75 10.3053 21.75 10.2853C21.75 10.2703 21.615 10.3253 21.45 10.4053C21.285 10.4853 21.14 10.5503 21.125 10.5503C21.11 10.5503 21.025 10.5853 20.935 10.6353C20.85 10.6803 20.765 10.7203 20.75 10.7253C20.735 10.7253 20.595 10.7903 20.435 10.8603C20.28 10.9353 20.13 11.0003 20.11 11.0003C20.09 11.0053 20.035 11.0453 19.99 11.0853C19.94 11.1303 19.9 11.1503 19.9 11.1253C19.9 11.1053 19.865 11.1153 19.825 11.1503C19.785 11.1853 19.75 11.1953 19.75 11.1753C19.75 11.1503 19.705 11.1753 19.65 11.2253C19.595 11.2753 19.55 11.3003 19.55 11.2803C19.55 11.2653 19.465 11.2903 19.365 11.3453C19.26 11.3953 19.16 11.4353 19.145 11.4303C19.125 11.4303 19.065 11.4653 19.015 11.5153C18.96 11.5603 18.905 11.5853 18.885 11.5703C18.87 11.5553 18.79 11.5853 18.71 11.6453C18.63 11.7003 18.55 11.7353 18.53 11.7153C18.515 11.7003 18.5 11.7153 18.5 11.7503C18.5 11.7853 18.485 11.8053 18.47 11.7853C18.45 11.7703 18.375 11.7853 18.295 11.8303C18.215 11.8703 18.135 11.9053 18.115 11.9053C18.09 11.9053 18.04 11.9403 17.995 11.9803C17.95 12.0203 17.905 12.0353 17.89 12.0203C17.87 12.0053 17.765 12.0503 17.655 12.1203C17.54 12.1953 17.45 12.2403 17.45 12.2253C17.45 12.2103 17.385 12.2303 17.3 12.2753C17.22 12.3153 17.14 12.3453 17.13 12.3403C17.12 12.3303 17.065 12.3703 17.005 12.4203C16.945 12.4753 16.9 12.5003 16.9 12.4803C16.9 12.4653 16.805 12.4953 16.69 12.5553C16.57 12.6153 16.465 12.6653 16.45 12.6603C16.435 12.6603 16.385 12.6953 16.34 12.7353C16.29 12.7803 16.25 12.8003 16.25 12.7753C16.25 12.7553 16.215 12.7653 16.175 12.8003C16.135 12.8353 16.1 12.8453 16.1 12.8253C16.1 12.8003 16.06 12.8203 16.015 12.8653C15.965 12.9053 15.91 12.9453 15.885 12.9453C15.865 12.9503 15.77 12.9803 15.675 13.0203C15.575 13.0653 15.48 13.1003 15.46 13.1003C15.44 13.1053 15.385 13.1453 15.33 13.1903C15.28 13.2353 15.225 13.2703 15.205 13.2703C15.19 13.2653 15.13 13.2803 15.075 13.3003C15.02 13.3203 14.955 13.3453 14.925 13.3503C14.9 13.3553 14.785 13.4053 14.675 13.4653C14.565 13.5203 14.465 13.5653 14.45 13.5603C14.435 13.5603 14.385 13.5953 14.34 13.6353C14.29 13.6803 14.25 13.7003 14.25 13.6803C14.25 13.6653 14.175 13.6853 14.09 13.7353C14 13.7803 13.91 13.8153 13.89 13.8103C13.865 13.8053 13.85 13.8253 13.85 13.8603C13.85 13.8903 13.835 13.9053 13.82 13.8853C13.8 13.8703 13.725 13.8853 13.645 13.9303C13.565 13.9703 13.49 13.9953 13.48 13.9903C13.47 13.9803 13.415 14.0203 13.355 14.0703C13.295 14.1253 13.25 14.1503 13.25 14.1303C13.25 14.1103 13.145 14.1503 13.015 14.2153C12.77 14.3403 12.565 14.4303 12.475 14.4453C12.45 14.4503 12.385 14.4953 12.34 14.5353C12.29 14.5803 12.25 14.6003 12.25 14.5803C12.25 14.5653 12.155 14.6003 12.035 14.6603C11.92 14.7203 11.81 14.7653 11.79 14.7603C11.775 14.7553 11.735 14.7853 11.7 14.8253C11.67 14.8603 11.61 14.8803 11.57 14.8653C11.53 14.8503 11.5 14.8653 11.5 14.9003C11.5 14.9303 11.48 14.9453 11.455 14.9303C11.43 14.9153 11.385 14.9353 11.35 14.9753C11.315 15.0153 11.27 15.0353 11.245 15.0253C11.225 15.0103 11.115 15.0553 11 15.1253C10.89 15.1953 10.8 15.2353 10.8 15.2203C10.8 15.2003 10.765 15.2203 10.72 15.2553C10.675 15.2953 10.61 15.3253 10.58 15.3303C10.455 15.3453 10.3 15.4153 10.3 15.4603C10.3 15.4853 10.28 15.4903 10.25 15.4753C10.225 15.4603 10.2 15.4703 10.2 15.4953C10.2 15.5253 10.185 15.5453 10.165 15.5403C10.09 15.5253 9.85 15.6103 9.85 15.6553C9.85 15.6803 9.835 15.6953 9.815 15.6903C9.735 15.6753 9.36 15.8403 9.23 15.9503C9.18 15.9903 9.13 16.0203 9.12 16.0103C9.065 15.9803 8.95 16.0053 8.89 16.0653C8.855 16.1003 8.81 16.1353 8.79 16.1403C8.52 16.2153 8.2 16.3653 8.2 16.4203C8.2 16.4453 8.185 16.4553 8.17 16.4403C8.125 16.3903 7.4 16.6953 7.4 16.7653C7.4 16.7853 7.38 16.7953 7.355 16.7753C7.33 16.7603 7.28 16.7753 7.24 16.8103C7.205 16.8453 7.155 16.8753 7.125 16.8753C7.065 16.8803 6.715 17.0353 6.215 17.2903C5.95 17.4253 5.865 17.4953 5.875 17.5603C5.9 17.6903 5.95 17.7553 6 17.7253C6.02 17.7103 6.065 17.7353 6.1 17.7753C6.135 17.8153 6.18 17.8403 6.2 17.8253C6.22 17.8103 6.265 17.8353 6.3 17.8753C6.335 17.9153 6.38 17.9353 6.405 17.9203C6.43 17.9053 6.45 17.9153 6.45 17.9453C6.45 18.0103 6.825 18.2053 6.87 18.1653C6.885 18.1453 6.9 18.1603 6.9 18.1903C6.9 18.2453 7.225 18.4403 7.32 18.4403C7.345 18.4403 7.38 18.4603 7.395 18.4853C7.45 18.5653 7.985 18.8503 8.015 18.8153C8.035 18.8003 8.05 18.8103 8.05 18.8403C8.05 18.8753 8.09 18.9003 8.14 18.9003C8.185 18.9003 8.08 18.9753 7.9 19.0653C7.72 19.1503 7.56 19.2453 7.545 19.2653C7.53 19.2903 7.5 19.3053 7.48 19.3003C7.425 19.2853 7.13 19.4103 7.04 19.4903C6.99 19.5303 6.95 19.5553 6.95 19.5353C6.95 19.5203 6.815 19.5753 6.65 19.6553C6.485 19.7353 6.34 19.8003 6.325 19.8003C6.31 19.8003 6.225 19.8353 6.135 19.8853C6.05 19.9303 5.965 19.9703 5.95 19.9753C5.935 19.9753 5.79 20.0403 5.625 20.1153C5.46 20.1953 5.32 20.2553 5.31 20.2503C5.305 20.2503 5.225 20.2853 5.135 20.3353C5.05 20.3803 4.965 20.4253 4.95 20.4253C4.935 20.4303 4.86 20.4603 4.78 20.4953C4.66 20.5403 4.615 20.5403 4.52 20.4753C4.455 20.4353 4.4 20.4153 4.4 20.4303C4.4 20.4503 4.355 20.4253 4.3 20.3753C4.245 20.3253 4.2 20.3003 4.2 20.3253C4.2 20.3453 4.165 20.3353 4.125 20.3003C4.085 20.2653 4.05 20.2553 4.05 20.2803C4.05 20.3053 4.03 20.3003 4.01 20.2703C3.97 20.2003 3.3 19.8403 3.3 19.8853C3.3 19.9003 3.255 19.8753 3.2 19.8253C3.145 19.7753 3.1 19.7503 3.1 19.7653C3.1 19.7853 2.995 19.7303 2.87 19.6503C2.74 19.5703 2.615 19.5153 2.595 19.5303C2.57 19.5453 2.55 19.5353 2.55 19.5103C2.55 19.4603 2.15 19.2703 2.085 19.2903C2.055 19.3003 2.05 18.5253 2.065 17.4653C2.08 16.4553 2.075 15.7353 2.05 15.8753C2.03 16.0103 2.01 16.8453 2.005 17.7253L2 19.3253L2.86 19.7503C3.335 19.9803 3.765 20.2053 3.815 20.2453C3.86 20.2853 3.9 20.3003 3.9 20.2753C3.9 20.2553 3.93 20.2653 3.965 20.2953C4.045 20.3603 4.61 20.6503 4.66 20.6503C4.675 20.6503 4.915 20.5453 5.185 20.4153C5.455 20.2853 5.7 20.1753 5.725 20.1703C5.755 20.1653 5.98 20.0653 6.225 19.9453C6.475 19.8303 6.685 19.7303 6.7 19.7253C6.745 19.7153 7.195 19.5053 7.755 19.2403C8.055 19.0953 8.295 18.9603 8.285 18.9303C8.275 18.9053 8.16 18.8203 8.02 18.7453C7.885 18.6703 7.395 18.3953 6.925 18.1303C6.46 17.8653 6.05 17.6503 6.015 17.6503C5.98 17.6503 5.95 17.6203 5.95 17.5853C5.95 17.5303 6.935 17.0253 7.09 17.0003C7.11 16.9953 7.165 16.9553 7.22 16.9103C7.27 16.8653 7.315 16.8353 7.32 16.8503C7.33 16.8853 8.11 16.5453 8.205 16.4653C8.245 16.4303 8.305 16.4003 8.335 16.4003C8.39 16.4003 8.805 16.2253 9.25 16.0103C9.4 15.9403 9.535 15.8753 9.55 15.8753C9.595 15.8603 9.82 15.7603 10.175 15.5953C10.37 15.5053 10.535 15.4303 10.55 15.4253C10.565 15.4203 10.7 15.3603 10.86 15.2903C11.015 15.2203 11.185 15.1453 11.245 15.1253C11.305 15.1103 11.35 15.0703 11.35 15.0453C11.35 15.0153 11.37 15.0053 11.39 15.0203C11.415 15.0353 11.555 14.9803 11.705 14.9053C11.855 14.8303 11.985 14.7653 12 14.7603C12.235 14.6853 12.35 14.6353 12.35 14.6053C12.35 14.5853 12.38 14.5653 12.415 14.5653C12.445 14.5653 12.59 14.5153 12.725 14.4503C12.865 14.3853 12.985 14.3303 13 14.3303C13.015 14.3253 13.155 14.2603 13.32 14.1853C13.48 14.1103 13.62 14.0503 13.63 14.0503C13.64 14.0503 13.86 13.9553 14.115 13.8353C14.365 13.7153 14.67 13.5753 14.79 13.5253C14.905 13.4753 15 13.4153 15 13.3903C15 13.3653 15.02 13.3553 15.04 13.3703C15.065 13.3853 15.17 13.3553 15.28 13.3003C15.385 13.2503 15.59 13.1603 15.725 13.0953C15.865 13.0353 16.12 12.9153 16.3 12.8353C16.48 12.7503 16.635 12.6803 16.65 12.6803C16.665 12.6753 16.805 12.6103 16.97 12.5353C17.13 12.4603 17.27 12.4003 17.28 12.4003C17.29 12.4003 17.515 12.3003 17.77 12.1753C18.03 12.0503 18.255 11.9503 18.265 11.9503C18.28 11.9503 18.51 11.8503 18.78 11.7203C19.055 11.5953 19.32 11.4753 19.375 11.4503C19.43 11.4253 19.655 11.3203 19.875 11.2203C20.095 11.1153 20.285 11.0303 20.3 11.0253C20.33 11.0153 20.585 10.9003 20.975 10.7203C21.14 10.6453 21.285 10.5803 21.3 10.5803C21.315 10.5753 21.36 10.5503 21.4 10.5253C21.44 10.5003 21.5 10.4753 21.525 10.4703C21.555 10.4653 21.765 10.3703 22 10.2603C22.235 10.1503 22.435 10.0603 22.45 10.0603C22.465 10.0553 22.565 10.0103 22.67 9.96027L22.87 9.86027L22.855 9.54527C22.84 9.12027 22.8 9.10027 22.8 9.51527ZM22.495 12.6203C22.26 12.7303 21.92 12.8903 21.745 12.9703C21.57 13.0503 21.28 13.1803 21.1 13.2653C20.92 13.3503 20.745 13.4253 20.705 13.4303C20.665 13.4403 20.62 13.4603 20.605 13.4853C20.59 13.5053 20.545 13.5303 20.51 13.5403C20.47 13.5453 20.3 13.6203 20.125 13.6953L19.805 13.8403V14.9853C19.805 15.6103 19.785 16.3653 19.77 16.6603C19.75 17.0053 19.755 17.2003 19.785 17.2003C19.835 17.2003 19.9 15.7553 19.9 14.5803C19.9 13.9553 19.905 13.9203 20.015 13.8503C20.075 13.8103 20.14 13.7753 20.165 13.7703C20.185 13.7653 20.21 13.7553 20.225 13.7503C20.24 13.7453 20.265 13.7303 20.29 13.7253C20.475 13.6703 20.65 13.5803 20.65 13.5453C20.65 13.5203 20.665 13.5053 20.69 13.5103C20.755 13.5253 20.97 13.4403 21.065 13.3603C21.11 13.3203 21.15 13.3003 21.15 13.3253C21.15 13.3453 21.185 13.3353 21.225 13.3003C21.265 13.2653 21.3 13.2553 21.3 13.2753C21.3 13.2953 21.335 13.2803 21.38 13.2453C21.425 13.2103 21.485 13.1753 21.52 13.1703C21.625 13.1553 22.045 12.9503 22.075 12.9003C22.095 12.8703 22.125 12.8603 22.15 12.8753C22.175 12.8903 22.22 12.8753 22.26 12.8403C22.295 12.8053 22.36 12.7703 22.4 12.7603C22.44 12.7503 22.49 12.7203 22.505 12.6903C22.52 12.6653 22.555 12.6403 22.58 12.6453C22.69 12.6503 22.85 12.5853 22.86 12.5303C22.865 12.5003 22.885 12.8553 22.9 13.3253L22.925 14.1753L22.97 13.3853C22.995 12.9353 22.995 12.5553 22.97 12.5053C22.93 12.4203 22.89 12.4303 22.495 12.6203ZM22.97 15.8253C22.97 16.4553 22.98 16.7103 22.985 16.3853C22.995 16.0603 22.995 15.5453 22.985 15.2353C22.98 14.9253 22.97 15.1903 22.97 15.8253Z" fill="white"></path>
  <path d="M15.7998 15.665C15.7298 15.695 15.4498 15.825 15.1748 15.96C14.8998 16.09 14.6548 16.2 14.6298 16.2C14.6048 16.2 14.4248 16.275 14.2298 16.365C13.7398 16.6 13.5448 16.685 13.4148 16.725C13.3498 16.74 13.2998 16.775 13.2998 16.79C13.2998 16.81 13.1998 16.86 13.0748 16.895C12.7048 17.005 12.7098 17.06 13.1148 17.29C13.3148 17.405 13.4998 17.5 13.5248 17.5C13.5498 17.5 13.6048 17.53 13.6448 17.57C13.6898 17.605 14.0198 17.79 14.3748 17.975C14.7348 18.16 15.1198 18.365 15.2398 18.43C15.3548 18.495 15.4498 18.53 15.4498 18.51C15.4498 18.49 15.4698 18.495 15.4898 18.525C15.5348 18.585 15.5198 18.58 16.6748 19.175C17.1998 19.44 17.6548 19.685 17.6898 19.71C17.7198 19.74 17.7498 19.745 17.7498 19.725C17.7498 19.7 17.7898 19.72 17.8398 19.765C17.8848 19.805 18.0898 19.92 18.2898 20.015C18.4898 20.115 18.6848 20.22 18.7248 20.25C18.7648 20.285 18.7998 20.295 18.7998 20.275C18.7998 20.25 18.8398 20.27 18.8898 20.31C19.0698 20.465 19.8098 20.81 19.8898 20.775C19.9348 20.76 19.9798 20.745 19.9848 20.745C19.9948 20.745 20.0948 20.695 20.2098 20.63C20.3298 20.565 20.7348 20.355 21.1098 20.155C21.4898 19.96 21.9498 19.715 22.1348 19.615C22.3248 19.515 22.5798 19.38 22.7098 19.31C23.0098 19.15 23.0298 19.07 22.9648 18.16L22.9148 17.475L22.9098 18.26C22.8998 18.995 22.8948 19.055 22.7898 19.145C22.7348 19.2 22.6648 19.235 22.6398 19.22C22.6198 19.205 22.5848 19.23 22.5698 19.27C22.5548 19.315 22.5198 19.34 22.4998 19.325C22.4798 19.31 22.4348 19.335 22.3998 19.375C22.3648 19.415 22.3198 19.435 22.2948 19.42C22.2698 19.405 22.2348 19.43 22.2198 19.47C22.2048 19.515 22.1698 19.54 22.1498 19.525C22.1248 19.51 22.0698 19.535 22.0298 19.58C21.9848 19.62 21.9498 19.645 21.9498 19.625C21.9498 19.61 21.8848 19.64 21.7998 19.7C21.7198 19.76 21.6498 19.79 21.6498 19.77C21.6498 19.75 21.6098 19.77 21.5598 19.815C21.5098 19.865 21.4498 19.885 21.4348 19.87C21.4148 19.85 21.3898 19.875 21.3698 19.92C21.3548 19.965 21.3148 19.985 21.2848 19.965C21.2598 19.95 21.2048 19.975 21.1648 20.025C21.1298 20.08 21.0998 20.1 21.0998 20.075C21.0998 20.055 21.0548 20.075 20.9948 20.13C20.9348 20.18 20.8848 20.215 20.8798 20.21C20.8648 20.17 20.4498 20.365 20.4498 20.415C20.4498 20.445 20.4348 20.45 20.4198 20.435C20.3848 20.4 19.9348 20.645 19.9098 20.715C19.8998 20.735 19.8348 20.72 19.7698 20.675C19.7048 20.635 19.6498 20.615 19.6498 20.63C19.6498 20.65 19.6098 20.63 19.5598 20.585C19.5098 20.535 19.4498 20.515 19.4348 20.535C19.4148 20.55 19.3998 20.545 19.3998 20.515C19.3998 20.475 19.1698 20.34 19.0998 20.34C19.0848 20.34 19.0448 20.32 19.0148 20.29C18.9798 20.26 18.9498 20.255 18.9498 20.28C18.9498 20.305 18.9298 20.3 18.9098 20.27C18.8648 20.195 17.8998 19.68 17.8998 19.73C17.8998 19.75 17.8548 19.725 17.7998 19.675C17.7448 19.625 17.6998 19.605 17.6998 19.625C17.6998 19.65 17.6648 19.625 17.6248 19.57C17.5848 19.52 17.5498 19.495 17.5498 19.52C17.5498 19.545 17.5048 19.525 17.4498 19.475C17.3948 19.425 17.3498 19.405 17.3498 19.425C17.3498 19.445 17.3048 19.425 17.2498 19.375C17.1948 19.325 17.1498 19.305 17.1498 19.33C17.1498 19.355 17.1298 19.35 17.1098 19.32C17.0698 19.255 16.1648 18.785 16.1298 18.81C16.1198 18.82 16.0648 18.785 16.0148 18.735C15.9598 18.69 15.8998 18.665 15.8848 18.685C15.8648 18.7 15.8498 18.685 15.8498 18.65C15.8498 18.615 15.8348 18.6 15.8148 18.615C15.7998 18.635 15.7398 18.615 15.6898 18.565C15.6398 18.52 15.5998 18.5 15.5998 18.52C15.5998 18.54 15.5648 18.52 15.5198 18.48C15.4798 18.435 15.4198 18.41 15.3948 18.425C15.3698 18.445 15.3498 18.435 15.3498 18.41C15.3498 18.365 15.1698 18.265 15.0798 18.26C15.0548 18.26 15.0198 18.24 15.0048 18.215C14.9698 18.165 14.6198 17.995 14.5698 18C14.5498 18.005 14.5198 17.985 14.5048 17.96C14.4648 17.895 13.8998 17.59 13.8998 17.63C13.8998 17.65 13.8598 17.63 13.8098 17.585C13.7598 17.535 13.6998 17.515 13.6848 17.535C13.6648 17.55 13.6498 17.54 13.6498 17.505C13.6498 17.455 13.4898 17.365 13.3798 17.36C13.3548 17.36 13.3198 17.335 13.3048 17.31C13.2898 17.285 13.2048 17.22 13.1148 17.165C12.9948 17.095 12.9698 17.05 13.0048 17C13.0298 16.96 13.0498 16.94 13.0498 16.96C13.0498 17.01 13.3498 16.9 13.3498 16.845C13.3498 16.825 13.3848 16.815 13.4248 16.83C13.4648 16.85 13.4998 16.835 13.4998 16.805C13.4998 16.775 13.5398 16.75 13.5898 16.75C13.6398 16.75 13.7048 16.725 13.7398 16.69C13.7698 16.66 13.8298 16.625 13.8648 16.62C13.9048 16.615 14.0448 16.56 14.1798 16.495C14.3148 16.435 14.4348 16.38 14.4498 16.375C14.6998 16.29 15.1198 16.085 15.2148 16.01C15.2598 15.97 15.2998 15.95 15.2998 15.975C15.2998 15.995 15.3348 15.985 15.3748 15.95C15.4148 15.915 15.4498 15.9 15.4498 15.92C15.4498 15.935 15.5798 15.885 15.7398 15.805L16.0298 15.66L16.2398 15.75C16.3548 15.805 16.4498 15.83 16.4498 15.815C16.4498 15.795 16.4798 15.82 16.5148 15.87C16.5498 15.915 16.6248 15.96 16.6898 15.965C16.7498 15.965 16.7998 15.985 16.7998 16.005C16.7998 16.03 16.9498 16.115 17.0748 16.15C17.1048 16.16 17.1548 16.2 17.1898 16.235C17.2298 16.27 17.2798 16.29 17.3048 16.275C17.3298 16.255 17.3498 16.265 17.3498 16.29C17.3498 16.33 17.5998 16.47 17.6448 16.45C17.6548 16.445 17.6798 16.46 17.6948 16.485C17.7348 16.545 18.3148 16.825 18.3648 16.81C18.3848 16.805 18.3998 16.82 18.3998 16.845C18.3998 16.895 18.5498 16.96 18.6048 16.935C18.6198 16.93 18.6698 16.965 18.7198 17.015C18.7698 17.06 18.8248 17.09 18.8498 17.075C18.8748 17.06 18.8998 17.07 18.9098 17.095C18.9298 17.155 19.5098 17.44 19.6698 17.47C19.7848 17.49 19.7998 17.475 19.7998 17.36C19.7998 17.245 19.7948 17.24 19.7398 17.315C19.6798 17.39 19.6598 17.39 19.4598 17.3C19.3448 17.25 19.2298 17.2 19.2098 17.2C19.1898 17.195 19.1348 17.155 19.0898 17.115C19.0398 17.07 18.9998 17.05 18.9998 17.075C18.9998 17.095 18.9648 17.08 18.9198 17.045C18.8448 16.98 18.5498 16.825 17.4298 16.255C17.2148 16.14 17.0048 16.025 16.9698 15.995C16.9298 15.965 16.8998 15.955 16.8998 15.975C16.8998 16 16.8598 15.98 16.8098 15.935C16.6798 15.82 16.2498 15.635 16.0748 15.625C15.9948 15.62 15.8698 15.635 15.7998 15.665ZM14.3998 20.26C14.2748 20.32 14.1648 20.37 14.1498 20.375C14.1348 20.38 14.0698 20.405 13.9998 20.435C13.3898 20.69 13.2298 20.765 13.0748 20.85C12.9798 20.905 12.8998 20.935 12.8998 20.92C12.8998 20.91 12.8498 20.925 12.7898 20.96C12.5848 21.07 12.3048 21.015 11.8448 20.78C11.6098 20.655 11.3998 20.57 11.3798 20.585C11.3648 20.605 11.3498 20.595 11.3498 20.565C11.3498 20.52 11.1248 20.41 11.0248 20.405C11.0098 20.405 10.9248 20.365 10.8398 20.32C10.6948 20.245 10.6648 20.245 10.5298 20.315C10.4448 20.355 10.2498 20.44 10.0998 20.5C9.94978 20.565 9.66978 20.685 9.47478 20.775C9.28478 20.865 9.01478 20.99 8.87478 21.05C8.73978 21.11 8.47978 21.23 8.29978 21.315C8.11978 21.4 7.96478 21.475 7.94978 21.475C7.93478 21.48 7.85978 21.51 7.77478 21.55C7.69478 21.585 7.51979 21.65 7.38979 21.695L7.15479 21.78L7.27979 21.88C7.50479 22.05 8.92478 22.815 8.96978 22.79C8.97978 22.78 9.02979 22.81 9.07979 22.855C9.20979 22.96 12.3798 24.55 12.4648 24.55C12.5048 24.55 12.7698 24.435 13.0548 24.295C13.3398 24.155 13.5798 24.045 13.5798 24.055C13.5848 24.065 13.6398 24.03 13.6998 23.975C13.7598 23.92 13.8198 23.88 13.8298 23.885C13.8648 23.905 14.3948 23.645 14.4248 23.595C14.4448 23.57 14.4748 23.56 14.4998 23.575C14.5198 23.59 14.5648 23.565 14.5998 23.525C14.6348 23.485 14.6898 23.45 14.7298 23.45C14.7648 23.45 15.1498 23.275 15.5848 23.055C16.0198 22.84 16.5098 22.6 16.6748 22.525C16.8398 22.445 17.0098 22.355 17.0498 22.32C17.0898 22.285 17.1398 22.255 17.1648 22.255C17.2398 22.255 17.9498 21.895 17.9498 21.855C17.9498 21.815 17.2898 21.47 17.2548 21.495C17.2448 21.5 17.2198 21.485 17.2048 21.46C17.1898 21.435 16.6948 21.175 16.1048 20.88C15.5148 20.585 15.0048 20.325 14.9648 20.295C14.9298 20.265 14.8998 20.255 14.8998 20.27C14.8998 20.29 14.8498 20.27 14.7898 20.23C14.6548 20.135 14.6798 20.13 14.3998 20.26ZM14.7998 20.305C14.8448 20.365 15.9998 20.955 15.9998 20.92C15.9998 20.9 16.0448 20.925 16.0998 20.975C16.1548 21.025 16.1998 21.05 16.1998 21.03C16.1998 21.01 16.2348 21.03 16.2798 21.07C16.3198 21.115 16.3798 21.14 16.4048 21.125C16.4298 21.105 16.4498 21.115 16.4498 21.14C16.4498 21.19 16.8648 21.39 16.8798 21.35C16.8848 21.335 16.9348 21.37 16.9948 21.42C17.0548 21.475 17.0998 21.5 17.0998 21.48C17.0998 21.46 17.1348 21.48 17.1798 21.52C17.2198 21.565 17.2798 21.59 17.3048 21.575C17.3298 21.555 17.3498 21.565 17.3498 21.59C17.3498 21.615 17.4398 21.675 17.5498 21.73C17.6598 21.78 17.7498 21.84 17.7498 21.855C17.7498 21.885 17.6498 21.945 17.5498 21.975C17.4298 22.01 17.2498 22.125 17.2498 22.16C17.2498 22.185 17.2298 22.195 17.2048 22.175C17.1798 22.16 17.1298 22.175 17.0898 22.21C17.0548 22.245 16.9898 22.28 16.9498 22.29C16.9098 22.3 16.8598 22.335 16.8398 22.365C16.8198 22.4 16.7998 22.41 16.7998 22.385C16.7998 22.365 16.7348 22.38 16.6498 22.425C16.5698 22.465 16.4848 22.505 16.4648 22.505C16.4398 22.505 16.3848 22.545 16.3298 22.59C16.2798 22.635 16.2248 22.67 16.2048 22.665C16.1698 22.655 15.6848 22.88 15.5048 22.995C15.4398 23.035 15.3498 23.075 15.3098 23.08C15.2698 23.09 15.2198 23.12 15.1998 23.15C15.1798 23.185 15.1498 23.205 15.1298 23.2C15.0648 23.18 14.7998 23.31 14.7998 23.36C14.7998 23.385 14.7798 23.395 14.7548 23.375C14.7298 23.36 14.6798 23.375 14.6398 23.41C14.6048 23.445 14.5398 23.48 14.4998 23.49C14.4598 23.5 14.4098 23.535 14.3898 23.565C14.3698 23.6 14.3498 23.61 14.3498 23.585C14.3498 23.54 13.5298 23.945 13.5098 24.005C13.4998 24.025 13.4598 24.03 13.4198 24.015C13.3798 24 13.3498 24.015 13.3498 24.05C13.3498 24.08 13.3298 24.095 13.3048 24.075C13.2798 24.06 13.2298 24.075 13.1898 24.11C13.1548 24.145 13.0898 24.18 13.0498 24.19C13.0098 24.2 12.9598 24.235 12.9398 24.265C12.9198 24.3 12.8998 24.305 12.8998 24.28C12.8998 24.255 12.8548 24.275 12.7998 24.325C12.7448 24.375 12.6998 24.395 12.6998 24.375C12.6998 24.355 12.6598 24.37 12.6098 24.415C12.5298 24.485 12.5048 24.49 12.3848 24.425C12.3098 24.39 12.2498 24.37 12.2498 24.385C12.2498 24.4 12.2048 24.375 12.1498 24.325C12.0948 24.275 12.0498 24.255 12.0498 24.275C12.0498 24.295 12.0048 24.275 11.9498 24.225C11.8948 24.175 11.8498 24.155 11.8498 24.18C11.8498 24.205 11.8298 24.2 11.8098 24.17C11.7698 24.11 11.1498 23.79 11.1498 23.83C11.1498 23.845 11.1148 23.82 11.0698 23.78C11.0298 23.735 10.9698 23.71 10.9448 23.725C10.9198 23.745 10.8998 23.73 10.8998 23.705C10.8998 23.675 10.8748 23.65 10.8398 23.65C10.8098 23.65 10.7398 23.61 10.6848 23.565C10.6098 23.5 10.5948 23.495 10.6248 23.55C10.6498 23.595 10.6248 23.59 10.5598 23.53C10.4998 23.475 10.4498 23.455 10.4498 23.48C10.4498 23.505 10.4298 23.5 10.4098 23.47C10.3698 23.4 9.69978 23.04 9.69978 23.085C9.69978 23.1 9.66478 23.085 9.62478 23.05C9.58478 23.015 9.54978 23.005 9.54978 23.02C9.54978 23.04 9.51478 23.02 9.46978 22.98C9.42978 22.935 9.36978 22.91 9.34478 22.925C9.31978 22.945 9.29978 22.935 9.29978 22.91C9.29978 22.87 8.69979 22.545 8.61479 22.54C8.59479 22.54 8.51479 22.495 8.43979 22.44C8.35979 22.385 8.29978 22.36 8.29978 22.38C8.29978 22.4 8.25478 22.375 8.19978 22.325C8.14478 22.275 8.09978 22.255 8.09978 22.275C8.09978 22.3 8.06478 22.275 8.02478 22.22C7.98478 22.17 7.94978 22.145 7.94978 22.17C7.94978 22.195 7.90478 22.175 7.84978 22.125C7.79478 22.075 7.74978 22.055 7.74978 22.075C7.74978 22.1 7.71478 22.075 7.66978 22.02C7.62978 21.97 7.60478 21.96 7.62478 22C7.64478 22.05 7.63478 22.045 7.58478 21.99C7.54478 21.94 7.50479 21.915 7.48979 21.93C7.47479 21.94 7.44978 21.92 7.43478 21.88C7.41478 21.83 7.46979 21.78 7.62979 21.72C7.74979 21.675 7.84978 21.615 7.84978 21.585C7.84978 21.555 7.86478 21.55 7.88478 21.565C7.89978 21.585 7.96978 21.565 8.03478 21.525C8.09978 21.48 8.14978 21.465 8.14978 21.48C8.14978 21.5 8.19478 21.475 8.24978 21.425C8.30478 21.375 8.34978 21.35 8.34978 21.375C8.34978 21.395 8.38478 21.385 8.42478 21.35C8.46478 21.315 8.49978 21.3 8.49978 21.315C8.49978 21.33 8.63979 21.27 8.81479 21.185C8.98479 21.1 9.13478 21.025 9.14978 21.025C9.35478 20.955 9.49978 20.88 9.49978 20.835C9.49978 20.805 9.51478 20.8 9.53478 20.815C9.54978 20.835 9.59478 20.825 9.63478 20.795C9.66978 20.765 9.69978 20.75 9.69978 20.77C9.69978 20.79 9.79479 20.75 9.91479 20.69C10.0298 20.63 10.1348 20.58 10.1498 20.575C10.1648 20.575 10.2848 20.52 10.4148 20.465C10.6448 20.36 10.6998 20.36 10.9248 20.45C11.0698 20.51 11.1698 20.54 11.2048 20.53C11.2248 20.53 11.2848 20.565 11.3348 20.615C11.3898 20.66 11.4498 20.685 11.4648 20.665C11.4848 20.65 11.4998 20.655 11.4998 20.685C11.4998 20.73 11.8148 20.895 11.9498 20.925C11.9648 20.925 12.0198 20.955 12.0748 20.985C12.1298 21.015 12.1848 21.04 12.1998 21.04C12.2148 21.045 12.2648 21.06 12.3148 21.075C12.4798 21.14 13.0448 21.005 13.2148 20.86C13.2598 20.82 13.2998 20.8 13.2998 20.825C13.2998 20.845 13.3348 20.835 13.3748 20.8C13.4148 20.765 13.4498 20.75 13.4498 20.77C13.4498 20.79 13.5448 20.755 13.6648 20.695C13.7798 20.635 13.8748 20.59 13.8748 20.6C13.8748 20.61 13.9748 20.56 14.0998 20.5C14.2248 20.435 14.3498 20.375 14.3848 20.37C14.4148 20.365 14.4798 20.335 14.5348 20.305C14.6298 20.25 14.7548 20.25 14.7998 20.305Z" fill="white"></path>
  <path d="M22.9148 9.1996C22.9148 9.3496 22.9248 9.4146 22.9348 9.3346C22.9448 9.2596 22.9448 9.1396 22.9348 9.0596C22.9248 8.9846 22.9148 9.0496 22.9148 9.1996ZM1.96484 11.2996C1.96484 11.4496 1.97484 11.5146 1.98484 11.4346C1.99484 11.3596 1.99484 11.2396 1.98484 11.1596C1.97484 11.0846 1.96484 11.1496 1.96484 11.2996ZM23.0198 15.8246C23.0198 16.6746 23.0298 17.0346 23.0348 16.6146C23.0448 16.1996 23.0448 15.4996 23.0348 15.0646C23.0298 14.6296 23.0198 14.9696 23.0198 15.8246ZM19.7598 15.9996C19.7598 16.0696 19.7698 16.0946 19.7848 16.0596C19.7948 16.0296 19.7948 15.9696 19.7848 15.9346C19.7698 15.9046 19.7598 15.9296 19.7598 15.9996ZM1.96484 18.2746C1.96484 18.4096 1.97484 18.4646 1.98484 18.3846C1.99484 18.3096 1.99484 18.1996 1.98484 18.1346C1.97484 18.0746 1.96484 18.1346 1.96484 18.2746Z" fill="white" fill-opacity="0.5"></path>
  <path d="M7.17496 3.14479C7.15996 3.16979 7.16496 3.20479 7.18996 3.21979C7.21496 3.23479 7.23496 3.21479 7.23496 3.17479C7.23496 3.08979 7.21996 3.07979 7.17496 3.14479ZM1.95996 12.0248C1.95996 12.1048 1.96996 12.1348 1.98496 12.0848C1.99496 12.0398 1.99496 11.9698 1.98496 11.9348C1.96996 11.9048 1.95996 11.9398 1.95996 12.0248ZM23.015 13.4998C23.015 13.6498 23.025 13.7148 23.035 13.6348C23.045 13.5598 23.045 13.4398 23.035 13.3598C23.025 13.2848 23.015 13.3498 23.015 13.4998ZM19.765 15.3748C19.765 15.4848 19.775 15.5248 19.785 15.4598C19.795 15.3998 19.795 15.3098 19.785 15.2598C19.77 15.2148 19.76 15.2648 19.765 15.3748ZM1.96496 17.3248C1.96496 17.5148 1.97496 17.5898 1.98496 17.4848C1.99496 17.3848 1.99496 17.2248 1.98496 17.1348C1.97496 17.0498 1.96496 17.1298 1.96496 17.3248ZM23.015 18.1248C23.015 18.2598 23.025 18.3148 23.035 18.2348C23.045 18.1598 23.045 18.0498 23.035 17.9848C23.025 17.9248 23.015 17.9848 23.015 18.1248Z" fill="white" fill-opacity="0.3"></path>
  <path d="M1.97484 8.02462C1.97484 9.25962 1.97984 9.75962 1.98484 9.13462C1.99484 8.50462 1.99484 7.49462 1.98484 6.88462C1.97984 6.27462 1.97484 6.78462 1.97484 8.02462ZM22.9148 7.92462C22.9148 8.11462 22.9248 8.18962 22.9348 8.08462C22.9448 7.98462 22.9448 7.82462 22.9348 7.73462C22.9248 7.64962 22.9148 7.72962 22.9148 7.92462ZM2.00484 15.7296C2.00484 15.7846 2.01984 15.7996 2.03484 15.7596C2.04984 15.7246 2.04484 15.6796 2.02984 15.6646C2.01484 15.6446 1.99984 15.6746 2.00484 15.7296ZM19.7548 16.3296C19.7548 16.3846 19.7698 16.3996 19.7848 16.3596C19.7998 16.3246 19.7948 16.2796 19.7798 16.2646C19.7648 16.2446 19.7498 16.2746 19.7548 16.3296ZM1.96484 19.0996C1.96484 19.2246 1.97484 19.2746 1.98484 19.2096C1.99484 19.1496 1.99484 19.0496 1.98484 18.9846C1.97484 18.9246 1.96484 18.9746 1.96484 19.0996Z" fill="white" fill-opacity="0.7"></path>
  <path d="M22.9148 8.60009C22.9148 8.80509 22.9248 8.89009 22.9348 8.78509C22.9448 8.68509 22.9448 8.51509 22.9348 8.41009C22.9248 8.31009 22.9148 8.39509 22.9148 8.60009ZM1.96484 10.6501C1.96484 10.8851 1.97484 10.9801 1.98484 10.8601C1.99484 10.7451 1.99484 10.5551 1.98484 10.4351C1.97484 10.3201 1.96484 10.4151 1.96484 10.6501ZM19.7548 16.1801C19.7548 16.2351 19.7698 16.2501 19.7848 16.2101C19.7998 16.1751 19.7948 16.1301 19.7798 16.1151C19.7648 16.0951 19.7498 16.1251 19.7548 16.1801ZM1.96484 18.7001C1.96484 18.8251 1.97484 18.8751 1.98484 18.8101C1.99484 18.7501 1.99484 18.6501 1.98484 18.5851C1.97484 18.5251 1.96484 18.5751 1.96484 18.7001Z" fill="white" fill-opacity="0.6"></path>
  <path d="M22.9152 9.65007C22.9152 9.77507 22.9252 9.82507 22.9352 9.76007C22.9452 9.70007 22.9452 9.60007 22.9352 9.53507C22.9252 9.47507 22.9152 9.52507 22.9152 9.65007ZM1.96517 11.7251C1.96517 11.8351 1.97517 11.8751 1.98517 11.8101C1.99517 11.7501 1.99517 11.6601 1.98517 11.6101C1.97017 11.5651 1.96017 11.6151 1.96517 11.7251ZM23.0152 14.0251C23.0152 14.1901 23.0252 14.2501 23.0352 14.1601C23.0452 14.0701 23.0452 13.9351 23.0352 13.8601C23.0252 13.7851 23.0152 13.8601 23.0152 14.0251ZM19.7652 15.7251C19.7652 15.8351 19.7752 15.8751 19.7852 15.8101C19.7952 15.7501 19.7952 15.6601 19.7852 15.6101C19.7702 15.5651 19.7602 15.6151 19.7652 15.7251ZM23.0152 17.6251C23.0152 17.7901 23.0252 17.8501 23.0352 17.7601C23.0452 17.6701 23.0452 17.5351 23.0352 17.4601C23.0252 17.3851 23.0152 17.4601 23.0152 17.6251ZM1.96517 17.8501C1.96517 17.9751 1.97517 18.0251 1.98517 17.9601C1.99517 17.9001 1.99517 17.8001 1.98517 17.7351C1.97517 17.6751 1.96517 17.7251 1.96517 17.8501Z" fill="white" fill-opacity="0.4"></path>
</svg>
